<?xml version="1.0" encoding="iso-8859-1"?>
<!-- Generator: Adobe Illustrator 18.0.0, SVG Export Plug-In . SVG Version: 6.00 Build 0)  -->
<!DOCTYPE svg PUBLIC "-//W3C//DTD SVG 1.1//EN" "http://www.w3.org/Graphics/SVG/1.1/DTD/svg11.dtd">
<svg version="1.1" id="Capa_1" xmlns="http://www.w3.org/2000/svg" xmlns:xlink="http://www.w3.org/1999/xlink" x="0px" y="0px"
	 viewBox="0 0 321.492 321.492" style="enable-background:new 0 0 321.492 321.492;" xml:space="preserve">
<g>
	<path d="M296.635,165.204h-26.861V9c0-4.971-4.029-9-9-9H84.409c-2.599,0-5.072,1.124-6.781,3.082L18.076,71.315
		c-1.431,1.64-2.219,3.742-2.219,5.918v235.259c0,4.971,4.029,9,9,9h235.917c4.971,0,9-4.029,9-9v-25.778h26.861
		c4.971,0,9-4.029,9-9v-103.51C305.635,169.233,301.606,165.204,296.635,165.204z M287.635,268.714H94.497v-85.51h193.139V268.714z
		 M75.409,32.999v35.234H44.657L75.409,32.999z M251.774,303.492H33.857V86.233h50.552c4.971,0,9-4.029,9-9V18h158.365v147.204
		H85.497c-4.971,0-9,4.029-9,9v103.51c0,4.971,4.029,9,9,9h166.277V303.492z"/>
	<path d="M141.776,237.201c0,4-0.437,7.637-6.109,7.637c-5.818,0-6.399-4-6.399-12.218h-10.181c0,9.963,0,21.017,17.381,21.017
		c10.472,0,16.217-5.381,16.217-16.436v-37.089h-10.909V237.201z"/>
	<path d="M187.304,200.112h-23.854v52.216h10.909v-18.835h12.508c14.036,0,16.654-11.927,16.654-16.654
		C203.521,206.585,197.413,200.112,187.304,200.112z M184.468,224.475h-10.108v-15.344h8.654c6.764,0,9.6,2.108,9.6,7.199
		C192.613,218.657,192.613,224.475,184.468,224.475z"/>
	<path d="M236.469,224.185v8.799h12.145c-2.254,10.545-10.254,11.49-12.654,11.49c-7.418,0-15.199-3.709-15.199-17.962
		c0-13.382,7.2-18.763,14.981-18.763c7.708,0,11.417,6.545,11.417,8.581h10.909c-0.582-7.199-6.909-17.599-22.908-17.599h-0.146
		c-17.526,0-25.38,13.453-25.38,27.635c0,18.326,11.417,27.344,23.999,27.344c9.526,0,13.526-4.728,16.29-7.927l1.091,6.545h7.272
		v-28.144H236.469z"/>
	<path d="M87.889,154.653h114.129c2.432,0,4.66-1.357,5.775-3.518s0.932-4.763-0.475-6.745l-31.126-43.842
		c-1.219-1.717-3.194-2.737-5.3-2.737c-2.105,0-4.081,1.021-5.3,2.737l-3.886,5.474l-20.638-29.07
		c-1.219-1.717-3.194-2.737-5.3-2.737s-4.081,1.021-5.3,2.737l-47.878,67.438c-1.407,1.982-1.591,4.585-0.475,6.745
		S85.458,154.653,87.889,154.653z M156.405,121.013c1.219,1.717,3.194,2.737,5.3,2.737c2.105,0,4.081-1.021,5.3-2.737l3.887-5.474
		l18.54,26.114h-88.956l35.292-49.71L156.405,121.013z"/>
	<path d="M215.707,121.165c11.132,0,20.188-9.057,20.188-20.188s-9.057-20.188-20.188-20.188c-11.132,0-20.189,9.057-20.189,20.188
		S204.575,121.165,215.707,121.165z M215.707,93.788c3.964,0,7.188,3.225,7.188,7.188s-3.225,7.188-7.188,7.188
		s-7.189-3.225-7.189-7.188S211.743,93.788,215.707,93.788z"/>
</g>
<g>
</g>
<g>
</g>
<g>
</g>
<g>
</g>
<g>
</g>
<g>
</g>
<g>
</g>
<g>
</g>
<g>
</g>
<g>
</g>
<g>
</g>
<g>
</g>
<g>
</g>
<g>
</g>
<g>
</g>
</svg>
