<?xml version="1.0" encoding="iso-8859-1"?>
<!-- Generator: Adobe Illustrator 18.0.0, SVG Export Plug-In . SVG Version: 6.00 Build 0)  -->
<!DOCTYPE svg PUBLIC "-//W3C//DTD SVG 1.1//EN" "http://www.w3.org/Graphics/SVG/1.1/DTD/svg11.dtd">
<svg version="1.1" id="Capa_1" xmlns="http://www.w3.org/2000/svg" xmlns:xlink="http://www.w3.org/1999/xlink" x="0px" y="0px"
	 viewBox="0 0 280 280" style="enable-background:new 0 0 280 280;" xml:space="preserve">
<g>
	<path d="M211,123.816c4.971,0,9-4.029,9-9s-4.029-9-9-9h-39.913c-2.886,0-5.597,1.384-7.29,3.722l-10.799,14.913l-9.973-13.772
		c-1.693-2.338-4.404-3.722-7.29-3.722H97.723V95.681c0-1.927-2.243-2.986-3.731-1.76l-24.161,19.896
		c-1.108,0.912-1.108,2.609,0,3.521l24.161,19.896c1.488,1.225,3.731,0.167,3.731-1.76v-10.516h33.418l10.746,14.839l-11.316,15.627
		H97.723v-10.896c0-1.927-2.243-2.986-3.731-1.761l-24.161,19.896c-1.108,0.912-1.108,2.609,0,3.521l24.161,19.896
		c1.488,1.225,3.731,0.167,3.731-1.761v-10.896h37.442c2.886,0,5.597-1.384,7.29-3.722l10.544-14.56l11.37,15.701
		c1.693,2.338,4.404,3.722,7.29,3.722H211c4.971,0,9-4.029,9-9s-4.029-9-9-9h-34.748l-12.142-16.767l11.572-15.98H211z"/>
	<path d="M183.028,43.028H96.972C43.501,43.028,0,86.529,0,140s43.501,96.972,96.972,96.972h86.057
		c53.47,0,96.972-43.501,96.972-96.972S236.499,43.028,183.028,43.028z M183.028,218.972H96.972C53.427,218.972,18,183.545,18,140
		s35.427-78.972,78.972-78.972h86.057C226.573,61.028,262,96.455,262,140S226.573,218.972,183.028,218.972z"/>
</g>
<g>
</g>
<g>
</g>
<g>
</g>
<g>
</g>
<g>
</g>
<g>
</g>
<g>
</g>
<g>
</g>
<g>
</g>
<g>
</g>
<g>
</g>
<g>
</g>
<g>
</g>
<g>
</g>
<g>
</g>
</svg>
