<?xml version="1.0" encoding="iso-8859-1"?>
<!-- Generator: Adobe Illustrator 18.0.0, SVG Export Plug-In . SVG Version: 6.00 Build 0)  -->
<!DOCTYPE svg PUBLIC "-//W3C//DTD SVG 1.1//EN" "http://www.w3.org/Graphics/SVG/1.1/DTD/svg11.dtd">
<svg version="1.1" id="Capa_1" xmlns="http://www.w3.org/2000/svg" xmlns:xlink="http://www.w3.org/1999/xlink" x="0px" y="0px"
	 viewBox="0 0 303.374 303.374" style="enable-background:new 0 0 303.374 303.374;" xml:space="preserve">
<g>
	<path d="M294.374,50.065H9c-4.971,0-9,4.029-9,9v185.244c0,4.971,4.029,9,9,9h285.374c4.971,0,9-4.029,9-9V59.065
		C303.374,54.094,299.345,50.065,294.374,50.065z M18,101.528h124.199v100.317H18V101.528z M208.965,83.528V68.065h30.766v15.463
		H208.965z M190.965,83.528h-30.766V68.065h30.766V83.528z M142.199,83.528h-30.766V68.065h30.766V83.528z M93.433,83.528H62.667
		V68.065h30.766V83.528z M93.433,219.846v15.463H62.667v-15.463H93.433z M111.433,219.846h30.766v15.463h-30.766V219.846z
		 M160.199,219.846h30.766v15.463h-30.766V219.846z M208.965,219.846h30.766v15.463h-30.766V219.846z M160.199,201.846V101.528
		h125.175v100.317H160.199z M285.374,83.528H257.73V68.065h27.644V83.528z M44.667,68.065v15.463H18V68.065H44.667z M18,219.846
		h26.667v15.463H18V219.846z M257.73,235.309v-15.463h27.644v15.463H257.73z"/>
</g>
<g>
</g>
<g>
</g>
<g>
</g>
<g>
</g>
<g>
</g>
<g>
</g>
<g>
</g>
<g>
</g>
<g>
</g>
<g>
</g>
<g>
</g>
<g>
</g>
<g>
</g>
<g>
</g>
<g>
</g>
</svg>
