<?xml version="1.0" encoding="iso-8859-1"?>
<!-- Generator: Adobe Illustrator 18.0.0, SVG Export Plug-In . SVG Version: 6.00 Build 0)  -->
<!DOCTYPE svg PUBLIC "-//W3C//DTD SVG 1.1//EN" "http://www.w3.org/Graphics/SVG/1.1/DTD/svg11.dtd">
<svg version="1.1" id="Capa_1" xmlns="http://www.w3.org/2000/svg" xmlns:xlink="http://www.w3.org/1999/xlink" x="0px" y="0px"
	 viewBox="0 0 276.715 276.715" style="enable-background:new 0 0 276.715 276.715;" xml:space="preserve">
<g>
	<path d="M138.357,0C62.067,0,0,62.066,0,138.357s62.067,138.357,138.357,138.357s138.357-62.066,138.357-138.357
		S214.648,0,138.357,0z M138.357,258.715C71.992,258.715,18,204.723,18,138.357S71.992,18,138.357,18
		s120.357,53.992,120.357,120.357S204.723,258.715,138.357,258.715z"/>
	<path d="M183.503,104.551H93.212c-4.971,0-9,4.029-9,9s4.029,9,9,9h90.291c4.971,0,9-4.029,9-9S188.474,104.551,183.503,104.551z"
		/>
	<path d="M183.503,154.164H93.212c-4.971,0-9,4.029-9,9s4.029,9,9,9h90.291c4.971,0,9-4.029,9-9S188.474,154.164,183.503,154.164z"
		/>
</g>
<g>
</g>
<g>
</g>
<g>
</g>
<g>
</g>
<g>
</g>
<g>
</g>
<g>
</g>
<g>
</g>
<g>
</g>
<g>
</g>
<g>
</g>
<g>
</g>
<g>
</g>
<g>
</g>
<g>
</g>
</svg>
