<?xml version="1.0" encoding="iso-8859-1"?>
<!-- Generator: Adobe Illustrator 18.0.0, SVG Export Plug-In . SVG Version: 6.00 Build 0)  -->
<!DOCTYPE svg PUBLIC "-//W3C//DTD SVG 1.1//EN" "http://www.w3.org/Graphics/SVG/1.1/DTD/svg11.dtd">
<svg version="1.1" id="Capa_1" xmlns="http://www.w3.org/2000/svg" xmlns:xlink="http://www.w3.org/1999/xlink" x="0px" y="0px"
	 viewBox="0 0 281.488 281.488" style="enable-background:new 0 0 281.488 281.488;" xml:space="preserve">
<g>
	<path d="M140.744,0C63.138,0,0,63.138,0,140.744s63.138,140.744,140.744,140.744s140.744-63.138,140.744-140.744
		S218.351,0,140.744,0z M140.744,263.488C73.063,263.488,18,208.426,18,140.744S73.063,18,140.744,18
		s122.744,55.063,122.744,122.744S208.426,263.488,140.744,263.488z"/>
	<path d="M198.293,119.289c-3.632-3.393-9.326-3.202-12.722,0.429c-3.394,3.632-3.202,9.327,0.43,12.722l3.767,3.521H91.72
		l3.767-3.521c3.632-3.395,3.823-9.09,0.43-12.722c-3.396-3.631-9.091-3.822-12.722-0.429l-20.428,19.098
		c-1.821,1.701-2.854,4.082-2.854,6.574s1.033,4.873,2.854,6.574l20.428,19.098c1.736,1.622,3.942,2.425,6.145,2.425
		c2.405,0,4.805-0.958,6.577-2.854c3.394-3.632,3.202-9.327-0.43-12.722l-3.767-3.521h98.048l-3.767,3.521
		c-3.632,3.395-3.823,9.09-0.43,12.722c1.772,1.896,4.172,2.854,6.577,2.854c2.202,0,4.409-0.803,6.145-2.425l20.428-19.098
		c1.821-1.701,2.854-4.082,2.854-6.574s-1.033-4.873-2.854-6.574L198.293,119.289z"/>
</g>
<g>
</g>
<g>
</g>
<g>
</g>
<g>
</g>
<g>
</g>
<g>
</g>
<g>
</g>
<g>
</g>
<g>
</g>
<g>
</g>
<g>
</g>
<g>
</g>
<g>
</g>
<g>
</g>
<g>
</g>
</svg>
