<?xml version="1.0" encoding="iso-8859-1"?>
<!-- Generator: Adobe Illustrator 18.0.0, SVG Export Plug-In . SVG Version: 6.00 Build 0)  -->
<!DOCTYPE svg PUBLIC "-//W3C//DTD SVG 1.1//EN" "http://www.w3.org/Graphics/SVG/1.1/DTD/svg11.dtd">
<svg version="1.1" id="Capa_1" xmlns="http://www.w3.org/2000/svg" xmlns:xlink="http://www.w3.org/1999/xlink" x="0px" y="0px"
	 viewBox="0 0 321.492 321.492" style="enable-background:new 0 0 321.492 321.492;" xml:space="preserve">
<g>
	<path d="M296.635,165.204h-26.861V9c0-4.971-4.029-9-9-9H84.409c-2.599,0-5.072,1.124-6.781,3.082L18.076,71.315
		c-1.431,1.64-2.219,3.742-2.219,5.918v235.259c0,4.971,4.029,9,9,9h235.917c4.971,0,9-4.029,9-9v-25.778h26.861
		c4.971,0,9-4.029,9-9v-103.51C305.635,169.233,301.606,165.204,296.635,165.204z M287.635,268.714H94.497v-85.51h193.139V268.714z
		 M75.409,32.999v35.234H44.657L75.409,32.999z M251.774,303.492H33.857V86.233h50.552c4.971,0,9-4.029,9-9V18h158.365v147.204
		H85.497c-4.971,0-9,4.029-9,9v103.51c0,4.971,4.029,9,9,9h166.277V303.492z"/>
	<path d="M146.867,200.112h-23.854v52.216h10.909v-18.835h12.508c14.036,0,16.654-11.927,16.654-16.654
		C163.084,206.585,156.975,200.112,146.867,200.112z M144.03,224.475h-10.108v-15.344h8.654c6.764,0,9.6,2.108,9.6,7.199
		C152.175,218.657,152.175,224.475,144.03,224.475z"/>
	<path d="M194.577,200.112h-23.053v52.216h22.617c17.235,0,21.671-16.145,21.671-27.344
		C215.812,215.094,212.176,200.112,194.577,200.112z M192.832,243.311h-10.618v-34.18h10.472c4.654,0,12,1.236,12,16.653
		C204.686,234.365,201.704,243.311,192.832,243.311z"/>
	<polygon points="224.033,200.112 224.033,252.328 234.942,252.328 234.942,230.365 257.922,230.365 257.922,221.13 234.942,221.13 
		234.942,209.349 261.195,209.349 261.195,200.112 	"/>
	<path d="M122.439,154.654h95.757c2.432,0,4.66-1.357,5.775-3.518s0.932-4.763-0.475-6.745l-47.878-67.439
		c-1.219-1.717-3.194-2.737-5.3-2.737s-4.081,1.021-5.3,2.737l-47.878,67.439c-1.407,1.982-1.591,4.585-0.475,6.745
		S120.007,154.654,122.439,154.654z M170.317,91.943l35.292,49.711h-70.585L170.317,91.943z"/>
</g>
<g>
</g>
<g>
</g>
<g>
</g>
<g>
</g>
<g>
</g>
<g>
</g>
<g>
</g>
<g>
</g>
<g>
</g>
<g>
</g>
<g>
</g>
<g>
</g>
<g>
</g>
<g>
</g>
<g>
</g>
</svg>
