<?xml version="1.0" encoding="iso-8859-1"?>
<!-- Generator: Adobe Illustrator 18.0.0, SVG Export Plug-In . SVG Version: 6.00 Build 0)  -->
<!DOCTYPE svg PUBLIC "-//W3C//DTD SVG 1.1//EN" "http://www.w3.org/Graphics/SVG/1.1/DTD/svg11.dtd">
<svg version="1.1" id="Capa_1" xmlns="http://www.w3.org/2000/svg" xmlns:xlink="http://www.w3.org/1999/xlink" x="0px" y="0px"
	 viewBox="0 0 219.98 219.98" style="enable-background:new 0 0 219.98 219.98;" xml:space="preserve">
<g>
	<path d="M162.83,10.093v49.12c0,2.217-1.798,4.015-4.015,4.015h-16.59c-2.217,0-4.015-1.798-4.015-4.015V42.704
		c0-2.217-1.798-4.015-4.015-4.015h-16.59c-2.217,0-4.015,1.798-4.015,4.015v16.589c0,2.217,1.798,4.015,4.015,4.015h16.59
		c2.217,0,4.015,1.798,4.015,4.015v16.508c0,2.217,1.798,4.015,4.015,4.015h41.899c2.217,0,4.015-1.798,4.015-4.015V67.243
		c0-2.217,1.798-4.015,4.015-4.015h23.811c2.217,0,4.015-1.798,4.015-4.015v-49.12c0-2.217-1.798-4.015-4.015-4.015h-49.12
		C164.628,6.078,162.83,7.875,162.83,10.093z"/>
	<path d="M45.728,112.812h39.229c2.217,0,4.015-1.798,4.015-4.015v-16.59c0-2.217-1.798-4.015-4.015-4.015H45.728
		c-2.217,0-4.015,1.798-4.015,4.015v16.59C41.713,111.014,43.511,112.812,45.728,112.812z"/>
	<path d="M109.576,6.423H78.576c-2.217,0-4.015,1.798-4.015,4.015v16.59c0,2.217,1.798,4.015,4.015,4.015h31.001
		c2.217,0,4.015-1.798,4.015-4.015v-16.59C113.591,8.22,111.793,6.423,109.576,6.423z"/>
	<path d="M139.039,158.036v-16.59c0-2.217-1.798-4.015-4.015-4.015h-16.59c-2.217,0-4.015,1.798-4.015,4.015v16.59
		c0,2.217,1.798,4.015,4.015,4.015h16.59C137.241,162.051,139.039,160.253,139.039,158.036z"/>
	<path d="M188.14,137.431v-2.108v-18.496c0-2.217-1.798-4.015-4.015-4.015h-41.071c-2.217,0-4.015,1.798-4.015,4.015v16.589
		c0,2.217,1.798,4.015,4.015,4.015h14.442c2.217,0,4.015,1.798,4.015,4.015v15.306v5.298v47.837c0,2.217,1.798,4.015,4.015,4.015
		h49.12c2.217,0,4.015-1.798,4.015-4.015v-49.12c0-2.217-1.798-4.015-4.015-4.015h-22.492c-2.217,0-4.015-1.798-4.015-4.015V137.431
		z"/>
	<path d="M188.14,92.553v16.589c0,2.217,1.798,4.015,4.015,4.015h16.59c2.217,0,4.015-1.798,4.015-4.015V92.553
		c0-2.217-1.798-4.015-4.015-4.015h-16.59C189.937,88.538,188.14,90.335,188.14,92.553z"/>
	<path d="M28.634,137.431h9.064c2.217,0,4.015-1.798,4.015-4.015v-16.589c0-2.217-1.798-4.015-4.015-4.015h-16.59
		c-2.217,0-4.015,1.798-4.015,4.015v11.291c0,2.217-1.798,4.015-4.015,4.015H4.015c-2.217,0-4.015,1.798-4.015,4.015v20.605v6.571
		v46.564c0,2.217,1.798,4.015,4.015,4.015h49.12c2.217,0,4.015-1.798,4.015-4.015v-49.12c0-2.217-1.798-4.015-4.015-4.015H28.634
		c-2.217,0-4.015-1.798-4.015-4.015v-11.291C24.619,139.229,26.417,137.431,28.634,137.431z"/>
	<path d="M106.389,162.051v-20.605c0-2.217,1.798-4.015,4.015-4.015h0c2.217,0,4.015-1.798,4.015-4.015v-16.244
		c0-2.217,1.798-4.015,4.015-4.015h15.761c2.217,0,4.015-1.798,4.015-4.015V92.553c0-2.217-1.798-4.015-4.015-4.015h-16.59
		c-2.217,0-4.015,1.798-4.015,4.015v16.244c0,2.217-1.798,4.015-4.015,4.015H93.815c-2.217,0-4.015,1.798-4.015,4.015v16.589
		c0,2.217-1.798,4.015-4.015,4.015H68.367c-2.217,0-4.015,1.798-4.015,4.015v16.59c0,2.217,1.798,4.015,4.015,4.015h9.388
		c2.217,0,4.015,1.798,4.015,4.015v16.589c0,2.217,1.798,4.015,4.015,4.015h16.428c2.217,0,4.015,1.798,4.015,4.015v16.59
		c0,2.217,1.798,4.015,4.015,4.015h41.668c2.217,0,4.015-1.798,4.015-4.015v-16.59c0-2.217-1.798-4.015-4.015-4.015h-41.506
		c-2.217,0-4.015-1.798-4.015-4.015V162.051z"/>
	<path d="M113.591,84.177v-16.59c0-2.217-1.798-4.015-4.015-4.015H92.987c-2.217,0-4.015,1.798-4.015,4.015v16.59
		c0,2.217,1.798,4.015,4.015,4.015h16.589C111.793,88.192,113.591,86.395,113.591,84.177z"/>
	<path d="M21.109,88.192h16.59c2.217,0,4.015-1.798,4.015-4.015v-16.59c0-2.217,1.798-4.015,4.015-4.015h8.832h23.194
		c2.217,0,4.015-1.798,4.015-4.015V42.968c0-2.217-1.798-4.015-4.015-4.015h-16.59c-2.217,0-4.015-1.798-4.015-4.015V10.438
		c0-2.217-1.798-4.015-4.015-4.015H4.015C1.798,6.423,0,8.22,0,10.438v49.12c0,2.217,1.798,4.015,4.015,4.015h9.063
		c2.217,0,4.015,1.798,4.015,4.015v16.59C17.094,86.395,18.891,88.192,21.109,88.192z"/>
</g>
<g>
</g>
<g>
</g>
<g>
</g>
<g>
</g>
<g>
</g>
<g>
</g>
<g>
</g>
<g>
</g>
<g>
</g>
<g>
</g>
<g>
</g>
<g>
</g>
<g>
</g>
<g>
</g>
<g>
</g>
</svg>
