<?xml version="1.0" encoding="iso-8859-1"?>
<!-- Generator: Adobe Illustrator 18.0.0, SVG Export Plug-In . SVG Version: 6.00 Build 0)  -->
<!DOCTYPE svg PUBLIC "-//W3C//DTD SVG 1.1//EN" "http://www.w3.org/Graphics/SVG/1.1/DTD/svg11.dtd">
<svg version="1.1" id="Capa_1" xmlns="http://www.w3.org/2000/svg" xmlns:xlink="http://www.w3.org/1999/xlink" x="0px" y="0px"
	 viewBox="0 0 321.492 321.492" style="enable-background:new 0 0 321.492 321.492;" xml:space="preserve">
<g>
	<path d="M296.635,165.204h-26.861V9c0-4.971-4.029-9-9-9H84.409c-2.599,0-5.072,1.124-6.781,3.082L18.076,71.315
		c-1.431,1.64-2.219,3.742-2.219,5.918v235.259c0,4.971,4.029,9,9,9h235.917c4.971,0,9-4.029,9-9v-25.778h26.861
		c4.971,0,9-4.029,9-9v-103.51C305.635,169.233,301.606,165.204,296.635,165.204z M287.635,268.714H94.497v-85.51h193.139V268.714z
		 M140.831,164.383L140.831,164.383v-9.563c0-17.692,14.394-32.087,32.087-32.087s32.087,14.395,32.087,32.087v9.562v0
		c0,0.279,0.023,0.552,0.057,0.821h-64.289C140.807,164.935,140.831,164.662,140.831,164.383z M75.409,32.999v35.234H44.657
		L75.409,32.999z M251.774,303.492H33.857V86.233h50.552c4.971,0,9-4.029,9-9V18h158.365v147.204h-33.827
		c0.034-0.27,0.057-0.542,0.057-0.821v-9.563c0-14.581-6.963-27.561-17.733-35.808h3.708c1.825,2.11,4.516,3.451,7.524,3.451
		c5.496,0,9.952-4.456,9.952-9.952s-4.455-9.952-9.952-9.952c-3.009,0-5.7,1.341-7.525,3.452h-62.124
		c-1.825-2.111-4.516-3.452-7.525-3.452c-5.496,0-9.952,4.456-9.952,9.952s4.456,9.952,9.952,9.952c3.009,0,5.7-1.341,7.525-3.451
		h3.709c-10.77,8.247-17.733,21.226-17.733,35.808v9.563c0,0.279,0.023,0.552,0.057,0.821H85.497c-4.971,0-9,4.029-9,9v103.51
		c0,4.971,4.029,9,9,9h166.277V303.492z"/>
	<polygon points="133.704,229.565 159.157,229.565 159.157,220.33 133.704,220.33 133.704,209.349 161.411,209.349 161.411,200.112 
		123.013,200.112 123.013,252.328 162.647,252.328 162.647,243.092 133.704,243.092 	"/>
	<path d="M195.377,200.112h-23.854v52.216h10.909v-18.835h12.508c14.036,0,16.654-11.927,16.654-16.654
		C211.594,206.585,205.485,200.112,195.377,200.112z M192.541,224.475h-10.108v-15.344h8.654c6.764,0,9.6,2.108,9.6,7.199
		C200.686,218.657,200.686,224.475,192.541,224.475z"/>
	<path d="M246.578,222.584l-12.727-3.127c-2.182-0.509-5.527-1.382-5.527-5.454c0-4.728,4.945-6.254,9.09-6.254
		c9.527,0,10.399,5.526,10.69,7.854h10.472c-0.073-6.399-4.363-16.871-20.362-16.871c-16.945,0-20.072,10.254-20.072,16.071
		c0,11.49,8.145,13.381,16.581,15.345l5.6,1.309c5.527,1.31,9.454,2.4,9.454,6.473c0,5.527-5.745,6.764-10.909,6.764
		c-9.527,0-10.981-5.527-11.054-8.437h-10.472c0,6.473,3.272,17.454,22.326,17.454c4.582,0,20.581-1.382,20.581-17.09
		C260.25,227.238,253.705,224.33,246.578,222.584z"/>
</g>
<g>
</g>
<g>
</g>
<g>
</g>
<g>
</g>
<g>
</g>
<g>
</g>
<g>
</g>
<g>
</g>
<g>
</g>
<g>
</g>
<g>
</g>
<g>
</g>
<g>
</g>
<g>
</g>
<g>
</g>
</svg>
