<?xml version="1.0" encoding="iso-8859-1"?>
<!-- Generator: Adobe Illustrator 18.0.0, SVG Export Plug-In . SVG Version: 6.00 Build 0)  -->
<!DOCTYPE svg PUBLIC "-//W3C//DTD SVG 1.1//EN" "http://www.w3.org/Graphics/SVG/1.1/DTD/svg11.dtd">
<svg version="1.1" id="Capa_1" xmlns="http://www.w3.org/2000/svg" xmlns:xlink="http://www.w3.org/1999/xlink" x="0px" y="0px"
	 viewBox="0 0 321.492 321.492" style="enable-background:new 0 0 321.492 321.492;" xml:space="preserve">
<g>
	<path d="M296.635,165.204h-26.861V9c0-4.971-4.029-9-9-9H84.409c-2.6,0-5.071,1.124-6.78,3.082L18.077,71.315
		c-1.432,1.64-2.22,3.742-2.22,5.918v235.259c0,4.971,4.029,9,9,9h235.917c4.971,0,9-4.029,9-9v-25.778h26.861c4.971,0,9-4.029,9-9
		v-103.51C305.635,169.233,301.606,165.204,296.635,165.204z M287.635,268.714H94.497v-85.51h193.139V268.714z M75.409,32.999
		v35.234H44.657L75.409,32.999z M251.774,303.492H33.857V86.233h50.552c4.971,0,9-4.029,9-9V18h158.365v147.204H85.497
		c-4.971,0-9,4.029-9,9v103.51c0,4.971,4.029,9,9,9h166.277V303.492z"/>
	<polygon points="119.242,209.349 135.022,209.349 135.022,252.328 145.931,252.328 145.931,209.349 161.711,209.349 
		161.711,200.112 119.242,200.112 	"/>
	<polygon points="209.058,200.112 196.477,200.112 186.951,216.984 177.642,200.112 164.625,200.112 180.55,225.639 
		163.679,252.328 176.406,252.328 186.951,234.511 196.84,252.328 210.149,252.328 193.131,225.202 	"/>
	<polygon points="212.189,200.112 212.189,209.349 227.969,209.349 227.969,252.328 238.878,252.328 238.878,209.349 
		254.659,209.349 254.659,200.112 	"/>
	<path d="M137.183,77.413h74.346c4.971,0,9-4.029,9-9s-4.029-9-9-9h-74.346c-4.971,0-9,4.029-9,9S132.212,77.413,137.183,77.413z"/>
	<path d="M137.183,111.354h74.346c4.971,0,9-4.029,9-9s-4.029-9-9-9h-74.346c-4.971,0-9,4.029-9,9S132.212,111.354,137.183,111.354z
		"/>
	<path d="M137.183,145.294h74.346c4.971,0,9-4.029,9-9s-4.029-9-9-9h-74.346c-4.971,0-9,4.029-9,9S132.212,145.294,137.183,145.294z
		"/>
</g>
<g>
</g>
<g>
</g>
<g>
</g>
<g>
</g>
<g>
</g>
<g>
</g>
<g>
</g>
<g>
</g>
<g>
</g>
<g>
</g>
<g>
</g>
<g>
</g>
<g>
</g>
<g>
</g>
<g>
</g>
</svg>
