<?xml version="1.0" encoding="iso-8859-1"?>
<!-- Generator: Adobe Illustrator 18.0.0, SVG Export Plug-In . SVG Version: 6.00 Build 0)  -->
<!DOCTYPE svg PUBLIC "-//W3C//DTD SVG 1.1//EN" "http://www.w3.org/Graphics/SVG/1.1/DTD/svg11.dtd">
<svg version="1.1" id="Capa_1" xmlns="http://www.w3.org/2000/svg" xmlns:xlink="http://www.w3.org/1999/xlink" x="0px" y="0px"
	 viewBox="0 0 321.492 321.492" style="enable-background:new 0 0 321.492 321.492;" xml:space="preserve">
<g>
	<path d="M296.635,165.204h-26.861V9c0-4.971-4.029-9-9-9H84.409c-2.599,0-5.072,1.124-6.781,3.082L18.076,71.315
		c-1.431,1.64-2.219,3.742-2.219,5.918v235.259c0,4.971,4.029,9,9,9h235.917c4.971,0,9-4.029,9-9v-25.778h26.861
		c4.971,0,9-4.029,9-9v-103.51C305.635,169.233,301.606,165.204,296.635,165.204z M287.635,268.714H94.497v-85.51h193.139V268.714z
		 M159.296,138.046c-1.012-1.846-1.136-4.022-0.34-5.971l13.896-34.014c5.342-13.076,12.768-25.075,22.088-35.691
		c-0.778,14.098-3.879,27.867-9.223,40.947l-13.896,34.014c-0.796,1.948-2.408,3.415-4.423,4.024
		C164.273,142.297,160.866,140.907,159.296,138.046z M75.409,32.999v35.234H44.657L75.409,32.999z M251.774,303.492H33.857V86.233
		h50.552c4.971,0,9-4.029,9-9V18h158.365v147.204h-93.581c1.755-4.899,3.74-8.446,5.194-10.68c0.683,0.071,1.369,0.118,2.06,0.118
		c1.902,0,3.825-0.273,5.711-0.844c5.783-1.747,10.411-5.957,12.697-11.551l13.896-34.015c6.054-14.816,9.497-30.437,10.234-46.427
		c0.248-5.392-2.82-10.194-7.816-12.235c-4.996-2.043-10.55-0.761-14.148,3.263c-10.67,11.932-19.15,25.494-25.203,40.312
		l-13.897,34.014c-2.284,5.594-1.928,11.84,0.977,17.138c0.975,1.777,2.203,3.349,3.61,4.706c-2.241,3.715-4.911,9.117-6.97,16.201
		H85.497c-4.971,0-9,4.029-9,9v103.51c0,4.971,4.029,9,9,9h166.277V303.492z"/>
	<path d="M146.867,200.112h-23.854v52.216h10.909v-18.835h12.508c14.036,0,16.654-11.927,16.654-16.654
		C163.084,206.585,156.975,200.112,146.867,200.112z M144.03,224.475h-10.108v-15.344h8.654c6.764,0,9.6,2.108,9.6,7.199
		C152.175,218.657,152.175,224.475,144.03,224.475z"/>
	<path d="M198.067,222.584l-12.727-3.127c-2.182-0.509-5.527-1.382-5.527-5.454c0-4.728,4.945-6.254,9.09-6.254
		c9.527,0,10.399,5.526,10.69,7.854h10.472c-0.073-6.399-4.363-16.871-20.362-16.871c-16.945,0-20.072,10.254-20.072,16.071
		c0,11.49,8.145,13.381,16.581,15.345l5.6,1.309c5.527,1.31,9.454,2.4,9.454,6.473c0,5.527-5.745,6.764-10.909,6.764
		c-9.527,0-10.981-5.527-11.054-8.437h-10.472c0,6.473,3.272,17.454,22.326,17.454c4.582,0,20.581-1.382,20.581-17.09
		C211.74,227.238,205.194,224.33,198.067,222.584z"/>
	<path d="M243.087,200.112h-23.053v52.216h22.617c17.235,0,21.671-16.145,21.671-27.344
		C264.322,215.094,260.686,200.112,243.087,200.112z M241.342,243.311h-10.618v-34.18h10.472c4.654,0,12,1.236,12,16.653
		C253.196,234.365,250.214,243.311,241.342,243.311z"/>
</g>
<g>
</g>
<g>
</g>
<g>
</g>
<g>
</g>
<g>
</g>
<g>
</g>
<g>
</g>
<g>
</g>
<g>
</g>
<g>
</g>
<g>
</g>
<g>
</g>
<g>
</g>
<g>
</g>
<g>
</g>
</svg>
