<?xml version="1.0" encoding="iso-8859-1"?>
<!-- Generator: Adobe Illustrator 18.0.0, SVG Export Plug-In . SVG Version: 6.00 Build 0)  -->
<!DOCTYPE svg PUBLIC "-//W3C//DTD SVG 1.1//EN" "http://www.w3.org/Graphics/SVG/1.1/DTD/svg11.dtd">
<svg version="1.1" id="Capa_1" xmlns="http://www.w3.org/2000/svg" xmlns:xlink="http://www.w3.org/1999/xlink" x="0px" y="0px"
	 viewBox="0 0 273.498 273.498" style="enable-background:new 0 0 273.498 273.498;" xml:space="preserve">
<g>
	<path d="M235.515,0h-65.844h-65.844H37.983c-4.971,0-9,4.029-9,9v255.498c0,4.971,4.029,9,9,9h65.844h65.844h65.844
		c4.971,0,9-4.029,9-9V9C244.515,4.029,240.485,0,235.515,0z M46.983,206.593h47.844v10.858H46.983V206.593z M112.827,206.593
		h47.844v10.858h-47.844V206.593z M178.671,206.593h47.844v10.858h-47.844V206.593z M226.515,188.593h-47.844V18h47.844V188.593z
		 M160.671,188.593h-47.844V18h47.844V188.593z M94.827,18v170.593H46.983V18H94.827z M46.983,235.451h47.844v20.047H46.983V235.451
		z M112.827,235.451h47.844v20.047h-47.844V235.451z M178.671,255.498v-20.047h47.844v20.047H178.671z"/>
	<path d="M70.905,77.403c4.971,0,9-4.029,9-9V48.555c0-4.971-4.029-9-9-9s-9,4.029-9,9v19.848
		C61.905,73.374,65.935,77.403,70.905,77.403z"/>
	<path d="M136.749,77.403c4.971,0,9-4.029,9-9V48.555c0-4.971-4.029-9-9-9s-9,4.029-9,9v19.848
		C127.749,73.374,131.778,77.403,136.749,77.403z"/>
	<path d="M202.593,77.403c4.971,0,9-4.029,9-9V48.555c0-4.971-4.029-9-9-9s-9,4.029-9,9v19.848
		C193.593,73.374,197.622,77.403,202.593,77.403z"/>
</g>
<g>
</g>
<g>
</g>
<g>
</g>
<g>
</g>
<g>
</g>
<g>
</g>
<g>
</g>
<g>
</g>
<g>
</g>
<g>
</g>
<g>
</g>
<g>
</g>
<g>
</g>
<g>
</g>
<g>
</g>
</svg>
