<?xml version="1.0" encoding="iso-8859-1"?>
<!-- Generator: Adobe Illustrator 18.0.0, SVG Export Plug-In . SVG Version: 6.00 Build 0)  -->
<!DOCTYPE svg PUBLIC "-//W3C//DTD SVG 1.1//EN" "http://www.w3.org/Graphics/SVG/1.1/DTD/svg11.dtd">
<svg version="1.1" id="Capa_1" xmlns="http://www.w3.org/2000/svg" xmlns:xlink="http://www.w3.org/1999/xlink" x="0px" y="0px"
	 viewBox="0 0 276.715 276.715" style="enable-background:new 0 0 276.715 276.715;" xml:space="preserve">
<g>
	<path d="M138.357,0C62.067,0,0,62.066,0,138.357s62.067,138.357,138.357,138.357s138.357-62.066,138.357-138.357
		S214.648,0,138.357,0z M138.357,18c66.365,0,120.357,53.992,120.357,120.357c0,15.606-2.987,30.527-8.417,44.223l-135.964-67.43
		c-0.112-0.71-0.301-1.419-0.593-2.111c-1.39-3.287-2.095-6.784-2.095-10.395c0-14.729,11.983-26.712,26.712-26.712
		s26.712,11.983,26.712,26.712c0,4.971,4.029,9,9,9s9-4.029,9-9c0-21.572-15.356-39.625-35.712-43.802V45.371c0-4.971-4.029-9-9-9
		s-9,4.029-9,9v13.473c-20.355,4.176-35.712,22.229-35.712,43.802c0,0.761,0.019,1.519,0.057,2.273L35.434,76.021
		C56.563,41.264,94.794,18,138.357,18z M138.357,258.715C71.992,258.715,18,204.723,18,138.357c0-16.397,3.301-32.037,9.266-46.296
		L159.88,157.83c0.221,0.559,0.502,1.105,0.844,1.628c2.843,4.341,4.345,9.394,4.345,14.611c0,14.729-11.983,26.712-26.712,26.712
		s-26.712-11.983-26.712-26.712c0-4.971-4.029-9-9-9s-9,4.029-9,9c0,21.572,15.356,39.625,35.712,43.802v13.473c0,4.971,4.029,9,9,9
		s9-4.029,9-9v-13.473c20.355-4.176,35.712-22.229,35.712-43.802c0-1.635-0.088-3.26-0.263-4.869l59.616,29.566
		C221.548,234.586,182.72,258.715,138.357,258.715z"/>
</g>
<g>
</g>
<g>
</g>
<g>
</g>
<g>
</g>
<g>
</g>
<g>
</g>
<g>
</g>
<g>
</g>
<g>
</g>
<g>
</g>
<g>
</g>
<g>
</g>
<g>
</g>
<g>
</g>
<g>
</g>
</svg>
