<?xml version="1.0" encoding="iso-8859-1"?>
<!-- Generator: Adobe Illustrator 18.0.0, SVG Export Plug-In . SVG Version: 6.00 Build 0)  -->
<!DOCTYPE svg PUBLIC "-//W3C//DTD SVG 1.1//EN" "http://www.w3.org/Graphics/SVG/1.1/DTD/svg11.dtd">
<svg version="1.1" id="Capa_1" xmlns="http://www.w3.org/2000/svg" xmlns:xlink="http://www.w3.org/1999/xlink" x="0px" y="0px"
	 viewBox="0 0 252.803 252.803" style="enable-background:new 0 0 252.803 252.803;" xml:space="preserve">
<g>
	<path d="M228.556,125.711h-8.547c-2.806-49.198-43.719-88.363-93.607-88.363S35.6,76.513,32.794,125.711h-8.547
		C10.877,125.711,0,136.588,0,149.957v41.252c0,13.369,10.877,24.246,24.247,24.246h17.394c4.971,0,9-4.029,9-9v-75.347
		c0-41.774,33.986-75.761,75.761-75.761s75.761,33.986,75.761,75.761v75.347c0,4.971,4.029,9,9,9h17.394
		c13.37,0,24.247-10.877,24.247-24.246v-41.252C252.803,136.588,241.926,125.711,228.556,125.711z M32.641,197.455h-8.394
		c-3.444,0-6.247-2.802-6.247-6.246v-41.252c0-3.444,2.803-6.246,6.247-6.246h8.394V197.455z M234.803,191.209
		c0,3.444-2.803,6.246-6.247,6.246h-8.394v-53.744h8.394c3.444,0,6.247,2.802,6.247,6.246V191.209z"/>
</g>
<g>
</g>
<g>
</g>
<g>
</g>
<g>
</g>
<g>
</g>
<g>
</g>
<g>
</g>
<g>
</g>
<g>
</g>
<g>
</g>
<g>
</g>
<g>
</g>
<g>
</g>
<g>
</g>
<g>
</g>
</svg>
