<?xml version="1.0" encoding="iso-8859-1"?>
<!-- Generator: Adobe Illustrator 18.0.0, SVG Export Plug-In . SVG Version: 6.00 Build 0)  -->
<!DOCTYPE svg PUBLIC "-//W3C//DTD SVG 1.1//EN" "http://www.w3.org/Graphics/SVG/1.1/DTD/svg11.dtd">
<svg version="1.1" id="Capa_1" xmlns="http://www.w3.org/2000/svg" xmlns:xlink="http://www.w3.org/1999/xlink" x="0px" y="0px"
	 viewBox="0 0 316.377 316.377" style="enable-background:new 0 0 316.377 316.377;" xml:space="preserve">
<g>
	<path d="M122.49,143.725l29.338,29.338c1.757,1.757,4.061,2.636,6.364,2.636s4.606-0.879,6.364-2.636l29.333-29.333
		c3.515-3.515,3.515-9.213,0-12.728c-3.515-3.515-9.213-3.515-12.728,0l-13.969,13.969V93.644c0-4.971-4.029-9-9-9s-9,4.029-9,9
		v51.327l-13.974-13.974c-3.515-3.515-9.213-3.515-12.728,0C118.975,134.512,118.975,140.21,122.49,143.725z"/>
	<path d="M297.81,135.894L164.552,2.637c-3.515-3.516-9.213-3.516-12.728,0L18.568,135.894c-1.688,1.688-2.636,3.977-2.636,6.364
		v165.12c0,4.971,4.029,9,9,9h266.515c4.971,0,9-4.029,9-9v-165.12C300.446,139.871,299.498,137.581,297.81,135.894z
		 M33.931,165.119l71.256,71.257l-71.256,53.076V165.119z M121.901,246.371l72.58,0.003l69.816,52.003H52.081L121.901,246.371z
		 M211.189,236.376l71.257-71.256v124.333L211.189,236.376z M158.189,21.729l121.097,121.096l-85.55,85.55l-71.096-0.003
		l-85.547-85.547L158.189,21.729z"/>
</g>
<g>
</g>
<g>
</g>
<g>
</g>
<g>
</g>
<g>
</g>
<g>
</g>
<g>
</g>
<g>
</g>
<g>
</g>
<g>
</g>
<g>
</g>
<g>
</g>
<g>
</g>
<g>
</g>
<g>
</g>
</svg>
