<?xml version="1.0" encoding="iso-8859-1"?>
<!-- Generator: Adobe Illustrator 18.0.0, SVG Export Plug-In . SVG Version: 6.00 Build 0)  -->
<!DOCTYPE svg PUBLIC "-//W3C//DTD SVG 1.1//EN" "http://www.w3.org/Graphics/SVG/1.1/DTD/svg11.dtd">
<svg version="1.1" id="Capa_1" xmlns="http://www.w3.org/2000/svg" xmlns:xlink="http://www.w3.org/1999/xlink" x="0px" y="0px"
	 viewBox="0 0 316.377 316.377" style="enable-background:new 0 0 316.377 316.377;" xml:space="preserve">
<g>
	<path d="M122.49,129.339c3.516,3.515,9.213,3.515,12.729,0l13.969-13.969v51.326c0,4.971,4.029,9,9,9s9-4.029,9-9V115.37
		l13.974,13.974c1.758,1.757,4.061,2.636,6.364,2.636s4.606-0.879,6.364-2.636c3.515-3.515,3.515-9.213,0-12.728l-29.338-29.338
		c-3.516-3.515-9.213-3.515-12.729,0l-29.333,29.333C118.975,120.126,118.975,125.824,122.49,129.339z"/>
	<path d="M297.809,135.893L164.553,2.636c-3.516-3.515-9.213-3.515-12.729,0L18.567,135.893c-1.688,1.688-2.636,3.977-2.636,6.364
		v165.12c0,4.971,4.029,9,9,9h266.514c4.971,0,9-4.029,9-9v-165.12C300.445,139.87,299.497,137.58,297.809,135.893z M33.932,165.119
		l71.256,71.256l-71.256,53.076V165.119z M121.901,246.37l72.579,0.003l69.817,52.003H52.08L121.901,246.37z M211.189,236.375
		l71.256-71.256v124.332L211.189,236.375z M158.188,21.728l121.096,121.096l-85.549,85.55l-71.096-0.003l-85.547-85.546
		L158.188,21.728z"/>
</g>
<g>
</g>
<g>
</g>
<g>
</g>
<g>
</g>
<g>
</g>
<g>
</g>
<g>
</g>
<g>
</g>
<g>
</g>
<g>
</g>
<g>
</g>
<g>
</g>
<g>
</g>
<g>
</g>
<g>
</g>
</svg>
