<?xml version="1.0" encoding="iso-8859-1"?>
<!-- Generator: Adobe Illustrator 18.0.0, SVG Export Plug-In . SVG Version: 6.00 Build 0)  -->
<!DOCTYPE svg PUBLIC "-//W3C//DTD SVG 1.1//EN" "http://www.w3.org/Graphics/SVG/1.1/DTD/svg11.dtd">
<svg version="1.1" id="Capa_1" xmlns="http://www.w3.org/2000/svg" xmlns:xlink="http://www.w3.org/1999/xlink" x="0px" y="0px"
	 viewBox="0 0 321.492 321.492" style="enable-background:new 0 0 321.492 321.492;" xml:space="preserve">
<g>
	<path d="M85.421,113.291c-4.971,0-9,4.029-9,9s4.029,9,9,9h150.649c4.971,0,9-4.029,9-9s-4.029-9-9-9H85.421z"/>
	<path d="M236.071,148.363H85.421c-4.971,0-9,4.029-9,9s4.029,9,9,9h150.649c4.971,0,9-4.029,9-9S241.042,148.363,236.071,148.363z"
		/>
	<path d="M236.071,183.436H85.421c-4.971,0-9,4.029-9,9s4.029,9,9,9h150.649c4.971,0,9-4.029,9-9S241.042,183.436,236.071,183.436z"
		/>
	<path d="M236.071,218.508H85.421c-4.971,0-9,4.029-9,9s4.029,9,9,9h150.649c4.971,0,9-4.029,9-9S241.042,218.508,236.071,218.508z"
		/>
	<path d="M236.071,253.581H85.421c-4.971,0-9,4.029-9,9s4.029,9,9,9h150.649c4.971,0,9-4.029,9-9S241.042,253.581,236.071,253.581z"
		/>
	<path d="M278.705,0H102.339c-2.599,0-5.072,1.124-6.781,3.082L36.007,71.315c-1.431,1.64-2.219,3.742-2.219,5.918v235.259
		c0,4.971,4.029,9,9,9h235.917c4.971,0,9-4.029,9-9V9C287.705,4.029,283.675,0,278.705,0z M93.339,32.999v35.234H62.588
		L93.339,32.999z M269.705,303.492H51.788V86.233h50.552c4.971,0,9-4.029,9-9V18h158.365V303.492z"/>
</g>
<g>
</g>
<g>
</g>
<g>
</g>
<g>
</g>
<g>
</g>
<g>
</g>
<g>
</g>
<g>
</g>
<g>
</g>
<g>
</g>
<g>
</g>
<g>
</g>
<g>
</g>
<g>
</g>
<g>
</g>
</svg>
