<?xml version="1.0" encoding="iso-8859-1"?>
<!-- Generator: Adobe Illustrator 18.0.0, SVG Export Plug-In . SVG Version: 6.00 Build 0)  -->
<!DOCTYPE svg PUBLIC "-//W3C//DTD SVG 1.1//EN" "http://www.w3.org/Graphics/SVG/1.1/DTD/svg11.dtd">
<svg version="1.1" id="Capa_1" xmlns="http://www.w3.org/2000/svg" xmlns:xlink="http://www.w3.org/1999/xlink" x="0px" y="0px"
	 viewBox="0 0 253.022 253.022" style="enable-background:new 0 0 253.022 253.022;" xml:space="preserve">
<g>
	<path d="M244.022,0H9C4.029,0,0,4.029,0,9v235.022c0,4.971,4.029,9,9,9h235.022c4.971,0,9-4.029,9-9V9
		C253.022,4.029,248.993,0,244.022,0z M235.022,117.511h-98.886V18h98.886V117.511z M118.136,18v99.511H18V18H118.136z M18,135.511
		h100.136v99.511H18V135.511z M136.136,235.022v-99.511h98.886v99.511H136.136z"/>
	<path d="M32.88,106.817h68.105c4.971,0,9-4.029,9-9V36.178c0-4.971-4.029-9-9-9H32.88c-4.971,0-9,4.029-9,9v61.639
		C23.88,102.788,27.909,106.817,32.88,106.817z M41.88,45.178h50.105v43.639H41.88V45.178z"/>
	<path d="M100.985,146.206H32.88c-4.971,0-9,4.029-9,9v61.639c0,4.971,4.029,9,9,9h68.105c4.971,0,9-4.029,9-9v-61.639
		C109.985,150.235,105.956,146.206,100.985,146.206z M91.985,207.845H41.88v-43.639h50.105V207.845z"/>
</g>
<g>
</g>
<g>
</g>
<g>
</g>
<g>
</g>
<g>
</g>
<g>
</g>
<g>
</g>
<g>
</g>
<g>
</g>
<g>
</g>
<g>
</g>
<g>
</g>
<g>
</g>
<g>
</g>
<g>
</g>
</svg>
