<?xml version="1.0" encoding="iso-8859-1"?>
<!-- Generator: Adobe Illustrator 18.0.0, SVG Export Plug-In . SVG Version: 6.00 Build 0)  -->
<!DOCTYPE svg PUBLIC "-//W3C//DTD SVG 1.1//EN" "http://www.w3.org/Graphics/SVG/1.1/DTD/svg11.dtd">
<svg version="1.1" id="Capa_1" xmlns="http://www.w3.org/2000/svg" xmlns:xlink="http://www.w3.org/1999/xlink" x="0px" y="0px"
	 viewBox="0 0 314.652 314.652" style="enable-background:new 0 0 314.652 314.652;" xml:space="preserve">
<g>
	<path d="M157.326,0C70.576,0,0,70.576,0,157.326s70.576,157.326,157.326,157.326s157.326-70.576,157.326-157.326
		S244.076,0,157.326,0z M157.326,296.652C80.502,296.652,18,234.15,18,157.326S80.502,18,157.326,18s139.326,62.502,139.326,139.326
		S234.15,296.652,157.326,296.652z"/>
	<circle cx="121.564" cy="192.547" r="15.186"/>
	<path d="M115.712,129.328c-4.971,0-9,4.029-9,9s4.029,9,9,9c28.345,0,51.405,23.061,51.405,51.405c0,4.971,4.029,9,9,9s9-4.029,9-9
		C185.117,160.463,153.982,129.328,115.712,129.328z"/>
	<path d="M115.712,87.171c-4.971,0-9,4.029-9,9s4.029,9,9,9c51.59,0,93.562,41.972,93.562,93.563c0,4.971,4.029,9,9,9s9-4.029,9-9
		C227.273,137.218,177.228,87.171,115.712,87.171z"/>
</g>
<g>
</g>
<g>
</g>
<g>
</g>
<g>
</g>
<g>
</g>
<g>
</g>
<g>
</g>
<g>
</g>
<g>
</g>
<g>
</g>
<g>
</g>
<g>
</g>
<g>
</g>
<g>
</g>
<g>
</g>
</svg>
