<?xml version="1.0" encoding="iso-8859-1"?>
<!-- Generator: Adobe Illustrator 18.0.0, SVG Export Plug-In . SVG Version: 6.00 Build 0)  -->
<!DOCTYPE svg PUBLIC "-//W3C//DTD SVG 1.1//EN" "http://www.w3.org/Graphics/SVG/1.1/DTD/svg11.dtd">
<svg version="1.1" id="Capa_1" xmlns="http://www.w3.org/2000/svg" xmlns:xlink="http://www.w3.org/1999/xlink" x="0px" y="0px"
	 viewBox="0 0 305.188 305.188" style="enable-background:new 0 0 305.188 305.188;" xml:space="preserve">
<g>
	<path d="M296.188,61.651H66.518c-2.407,0-4.713,0.964-6.404,2.676L20.147,104.8C6.846,118.269-0.305,136.11,0.01,155.037
		c0.315,18.927,8.056,36.521,21.798,49.539l38.521,36.495c1.672,1.583,3.887,2.466,6.19,2.466h229.67c4.971,0,9-4.029,9-9V70.651
		C305.188,65.68,301.159,61.651,296.188,61.651z M287.188,225.537H70.105L34.188,191.51c-10.2-9.664-15.947-22.723-16.181-36.772
		c-0.233-14.049,5.075-27.292,14.948-37.29L70.28,79.651h216.909V225.537z"/>
	<path d="M45.629,155.322c0,15.068,12.258,27.326,27.326,27.326s27.326-12.258,27.326-27.326c0-15.067-12.258-27.326-27.326-27.326
		S45.629,140.254,45.629,155.322z M72.954,145.996c5.142,0,9.326,4.184,9.326,9.326c0,5.143-4.184,9.326-9.326,9.326
		s-9.326-4.184-9.326-9.326C63.629,150.18,67.812,145.996,72.954,145.996z"/>
</g>
<g>
</g>
<g>
</g>
<g>
</g>
<g>
</g>
<g>
</g>
<g>
</g>
<g>
</g>
<g>
</g>
<g>
</g>
<g>
</g>
<g>
</g>
<g>
</g>
<g>
</g>
<g>
</g>
<g>
</g>
</svg>
