<?xml version="1.0" encoding="iso-8859-1"?>
<!-- Generator: Adobe Illustrator 18.0.0, SVG Export Plug-In . SVG Version: 6.00 Build 0)  -->
<!DOCTYPE svg PUBLIC "-//W3C//DTD SVG 1.1//EN" "http://www.w3.org/Graphics/SVG/1.1/DTD/svg11.dtd">
<svg version="1.1" id="Capa_1" xmlns="http://www.w3.org/2000/svg" xmlns:xlink="http://www.w3.org/1999/xlink" x="0px" y="0px"
	 viewBox="0 0 282.334 282.334" style="enable-background:new 0 0 282.334 282.334;" xml:space="preserve">
<g>
	<path d="M257.981,210.805c-0.535,0-1.065,0.023-1.592,0.058c-0.369,0.024-0.737,0.054-1.101,0.095l-30.401-57.075
		c3.601-4.246,5.779-9.735,5.779-15.725c0-6.7-2.721-12.776-7.114-17.183l21.395-49.463c0.24,0.007,0.478,0.018,0.719,0.018
		c0.535,0,1.065-0.023,1.591-0.058c12.688-0.823,22.761-11.402,22.761-24.295c0-13.428-10.925-24.353-24.353-24.353
		s-24.353,10.925-24.353,24.353c0,6.7,2.721,12.776,7.114,17.183l-18.242,42.175c-10.822-32.378-37.789-57.426-71.299-65.548
		c-2.746-10.439-12.264-18.162-23.553-18.162s-20.807,7.723-23.553,18.162c-36.245,8.786-64.833,37.373-73.619,73.618
		C7.723,117.351,0,126.868,0,138.157s7.723,20.807,18.162,23.553c8.786,36.245,37.374,64.833,73.619,73.619
		c2.746,10.439,12.264,18.162,23.553,18.162s20.807-7.723,23.553-18.162c34.632-8.395,62.272-34.868,72.329-68.826l28.193,52.929
		c-3.601,4.246-5.779,9.735-5.779,15.725c0,13.428,10.925,24.353,24.353,24.353s24.353-10.925,24.353-24.353
		S271.409,210.805,257.981,210.805z M264.334,235.157c0,3.503-2.85,6.353-6.353,6.353s-6.353-2.85-6.353-6.353
		s2.85-6.353,6.353-6.353S264.334,231.654,264.334,235.157z M121.687,229.139c0,3.503-2.85,6.353-6.353,6.353
		s-6.353-2.85-6.353-6.353s2.85-6.353,6.353-6.353S121.687,225.636,121.687,229.139z M136.616,217.32
		c-4.164-7.469-12.141-12.534-21.282-12.534s-17.118,5.065-21.282,12.534c-28.126-7.569-50.312-29.754-57.881-57.881
		c7.469-4.164,12.534-12.141,12.534-21.282s-5.065-17.118-12.534-21.282c7.569-28.126,29.754-50.311,57.881-57.88
		c4.164,7.469,12.141,12.534,21.282,12.534s17.118-5.065,21.282-12.534c28.125,7.569,50.311,29.754,57.88,57.88
		c-7.469,4.164-12.534,12.141-12.534,21.282s5.065,17.118,12.534,21.282C186.927,187.566,164.742,209.751,136.616,217.32z
		 M24.353,131.805c3.503,0,6.353,2.85,6.353,6.353s-2.85,6.353-6.353,6.353S18,141.66,18,138.157S20.85,131.805,24.353,131.805z
		 M108.981,47.177c0-3.503,2.85-6.353,6.353-6.353s6.353,2.85,6.353,6.353s-2.85,6.353-6.353,6.353S108.981,50.68,108.981,47.177z
		 M206.314,144.51c-3.503,0-6.353-2.85-6.353-6.353s2.85-6.353,6.353-6.353s6.353,2.85,6.353,6.353S209.817,144.51,206.314,144.51z
		 M252.02,47.177c0,3.503-2.85,6.353-6.353,6.353s-6.353-2.85-6.353-6.353s2.85-6.353,6.353-6.353S252.02,43.674,252.02,47.177z"/>
</g>
<g>
</g>
<g>
</g>
<g>
</g>
<g>
</g>
<g>
</g>
<g>
</g>
<g>
</g>
<g>
</g>
<g>
</g>
<g>
</g>
<g>
</g>
<g>
</g>
<g>
</g>
<g>
</g>
<g>
</g>
</svg>
