<?xml version="1.0" encoding="iso-8859-1"?>
<!-- Generator: Adobe Illustrator 18.0.0, SVG Export Plug-In . SVG Version: 6.00 Build 0)  -->
<!DOCTYPE svg PUBLIC "-//W3C//DTD SVG 1.1//EN" "http://www.w3.org/Graphics/SVG/1.1/DTD/svg11.dtd">
<svg version="1.1" id="Capa_1" xmlns="http://www.w3.org/2000/svg" xmlns:xlink="http://www.w3.org/1999/xlink" x="0px" y="0px"
	 viewBox="0 0 314.652 314.652" style="enable-background:new 0 0 314.652 314.652;" xml:space="preserve">
<g>
	<path d="M157.326,0C70.576,0,0,70.576,0,157.326s70.576,157.326,157.326,157.326s157.326-70.576,157.326-157.326
		S244.076,0,157.326,0z M157.326,296.652C80.501,296.652,18,234.15,18,157.326S80.501,18,157.326,18s139.326,62.502,139.326,139.326
		S234.151,296.652,157.326,296.652z"/>
	<path d="M193.077,72.575h-71.502c-27.019,0-49,21.981-49,49v71.502c0,27.019,21.981,49,49,49h111.502c4.971,0,9-4.029,9-9V121.575
		C242.077,94.557,220.096,72.575,193.077,72.575z M224.077,224.077H121.575c-17.093,0-31-13.906-31-31v-71.502
		c0-17.094,13.907-31,31-31h71.502c17.093,0,31,13.906,31,31V224.077z"/>
	<path d="M172.2,121.449c-3.795,3.21-4.288,8.867-1.078,12.662c0.808,0.98,19.551,24.352-0.513,53.594
		c-2.813,4.099-1.77,9.701,2.329,12.513c1.556,1.068,3.329,1.58,5.084,1.58c2.866,0,5.685-1.367,7.429-3.909
		c22.387-32.627,9.43-63.56-0.549-75.358C181.691,118.735,175.994,118.239,172.2,121.449z"/>
	<path d="M141.696,140.64c2.37,0,4.69-0.96,6.36-2.64c1.68-1.67,2.64-3.99,2.64-6.36s-0.96-4.689-2.64-6.359
		c-1.67-1.681-3.99-2.641-6.36-2.641c-2.37,0-4.69,0.96-6.37,2.641c-1.67,1.67-2.63,3.989-2.63,6.359s0.96,4.69,2.63,6.36
		C137.006,139.68,139.326,140.64,141.696,140.64z"/>
	<path d="M140.166,159.286c-4.84,1.416-7.617,6.487-6.201,11.327l5.71,19.525c0.656,2.228,2.657,3.917,5.108,4.052
		c3.113,0.171,5.775-2.213,5.947-5.327l1.117-20.313c0.051-0.995-0.058-2.054-0.353-3.064
		C150.077,160.647,145.006,157.871,140.166,159.286z"/>
</g>
<g>
</g>
<g>
</g>
<g>
</g>
<g>
</g>
<g>
</g>
<g>
</g>
<g>
</g>
<g>
</g>
<g>
</g>
<g>
</g>
<g>
</g>
<g>
</g>
<g>
</g>
<g>
</g>
<g>
</g>
</svg>
