<?xml version="1.0" encoding="iso-8859-1"?>
<!-- Generator: Adobe Illustrator 18.0.0, SVG Export Plug-In . SVG Version: 6.00 Build 0)  -->
<!DOCTYPE svg PUBLIC "-//W3C//DTD SVG 1.1//EN" "http://www.w3.org/Graphics/SVG/1.1/DTD/svg11.dtd">
<svg version="1.1" id="Capa_1" xmlns="http://www.w3.org/2000/svg" xmlns:xlink="http://www.w3.org/1999/xlink" x="0px" y="0px"
	 viewBox="0 0 314.652 314.652" style="enable-background:new 0 0 314.652 314.652;" xml:space="preserve">
<g>
	<path d="M238.633,145.499c-0.961,0-1.915,0.043-2.862,0.128c-7.98-23.485-30.033-39.692-55.618-39.692
		c-19.835,0-37.89,9.757-48.736,25.904c-3.322-0.747-6.725-1.123-10.18-1.123c-13.69,0-26.608,6.111-35.341,16.359
		c-3.162-1.041-6.487-1.576-9.878-1.576c-17.43,0-31.609,14.18-31.609,31.609s14.18,31.609,31.609,31.609h162.614
		c17.43,0,31.609-14.18,31.609-31.609S256.063,145.499,238.633,145.499z M238.633,190.718H76.019
		c-7.504,0-13.609-6.105-13.609-13.609s6.105-13.609,13.609-13.609c2.767,0,5.429,0.826,7.7,2.391
		c2.069,1.423,4.637,1.918,7.091,1.365c2.451-0.555,4.558-2.108,5.812-4.286c5.065-8.791,14.497-14.253,24.616-14.253
		c3.764,0,7.425,0.728,10.882,2.163c4.371,1.813,9.399-0.066,11.508-4.302c6.953-13.967,20.949-22.643,36.526-22.643
		c20.041,0,36.958,14.329,40.224,34.07c0.458,2.765,2.176,5.158,4.649,6.475c2.473,1.317,5.417,1.408,7.967,0.244
		c1.781-0.813,3.679-1.225,5.64-1.225c7.504,0,13.609,6.105,13.609,13.609S246.138,190.718,238.633,190.718z"/>
	<path d="M157.326,0C70.576,0,0,70.576,0,157.326s70.576,157.326,157.326,157.326s157.326-70.576,157.326-157.326
		S244.076,0,157.326,0z M157.326,296.652C80.501,296.652,18,234.15,18,157.326S80.501,18,157.326,18s139.326,62.502,139.326,139.326
		S234.151,296.652,157.326,296.652z"/>
</g>
<g>
</g>
<g>
</g>
<g>
</g>
<g>
</g>
<g>
</g>
<g>
</g>
<g>
</g>
<g>
</g>
<g>
</g>
<g>
</g>
<g>
</g>
<g>
</g>
<g>
</g>
<g>
</g>
<g>
</g>
</svg>
