<?xml version="1.0" encoding="iso-8859-1"?>
<!-- Generator: Adobe Illustrator 18.0.0, SVG Export Plug-In . SVG Version: 6.00 Build 0)  -->
<!DOCTYPE svg PUBLIC "-//W3C//DTD SVG 1.1//EN" "http://www.w3.org/Graphics/SVG/1.1/DTD/svg11.dtd">
<svg version="1.1" id="Capa_1" xmlns="http://www.w3.org/2000/svg" xmlns:xlink="http://www.w3.org/1999/xlink" x="0px" y="0px"
	 viewBox="0 0 296.305 296.305" style="enable-background:new 0 0 296.305 296.305;" xml:space="preserve">
<g>
	<path d="M132.997,47.168c-23.662-23.663-62.165-23.664-85.83,0c-23.663,23.664-23.663,62.167,0,85.829
		c11.463,11.463,26.704,17.776,42.915,17.776c16.211,0,31.452-6.313,42.915-17.775c11.463-11.463,17.776-26.704,17.776-42.915
		C150.773,73.872,144.461,58.631,132.997,47.168z M120.269,120.27c-8.063,8.063-18.783,12.503-30.187,12.503
		c-11.403,0-22.124-4.44-30.187-12.503c-16.645-16.645-16.645-43.729,0-60.374c8.324-8.324,19.254-12.484,30.187-12.484
		c10.931,0,21.865,4.162,30.187,12.483c8.063,8.063,12.503,18.784,12.503,30.187C132.773,101.486,128.333,112.206,120.269,120.27z"
		/>
	<path d="M293.669,242.36l-81.224-81.224c-3.515-3.515-9.213-3.515-12.728,0l-1.251,1.251l-29.231-29.231
		c18.578-34.18,13.451-77.926-15.423-106.8c0,0,0,0,0,0c-35.14-35.139-92.317-35.139-127.457,0
		c-35.139,35.14-35.139,92.317,0,127.457c17.57,17.569,40.649,26.354,63.728,26.354c14.85,0,29.69-3.658,43.072-10.932
		l29.231,29.232l-1.251,1.251c-3.515,3.515-3.515,9.213,0,12.728l81.224,81.224c1.757,1.757,4.061,2.636,6.364,2.636
		s4.606-0.879,6.364-2.636l38.582-38.582C297.184,251.573,297.184,245.874,293.669,242.36z M39.083,141.084
		c-28.122-28.122-28.122-73.879,0-102.001c14.061-14.061,32.531-21.091,51.001-21.091c18.47,0,36.939,7.03,51,21.091
		c28.122,28.122,28.122,73.879,0,102.001C112.962,169.205,67.205,169.204,39.083,141.084z M148.261,158.885
		c1.899-1.608,3.76-3.283,5.551-5.074c1.79-1.79,3.466-3.652,5.073-5.551l26.853,26.853l-10.625,10.625L148.261,158.885z
		 M248.723,274.577l-68.496-68.496l25.854-25.854l68.496,68.496L248.723,274.577z"/>
	<path d="M108.286,81.083H71.88c-4.971,0-9,4.029-9,9s4.029,9,9,9h36.407c4.971,0,9-4.029,9-9S113.257,81.083,108.286,81.083z"/>
</g>
<g>
</g>
<g>
</g>
<g>
</g>
<g>
</g>
<g>
</g>
<g>
</g>
<g>
</g>
<g>
</g>
<g>
</g>
<g>
</g>
<g>
</g>
<g>
</g>
<g>
</g>
<g>
</g>
<g>
</g>
</svg>
