<?xml version="1.0" encoding="iso-8859-1"?>
<!-- Generator: Adobe Illustrator 18.0.0, SVG Export Plug-In . SVG Version: 6.00 Build 0)  -->
<!DOCTYPE svg PUBLIC "-//W3C//DTD SVG 1.1//EN" "http://www.w3.org/Graphics/SVG/1.1/DTD/svg11.dtd">
<svg version="1.1" id="Capa_1" xmlns="http://www.w3.org/2000/svg" xmlns:xlink="http://www.w3.org/1999/xlink" x="0px" y="0px"
	 viewBox="0 0 338.011 338.011" style="enable-background:new 0 0 338.011 338.011;" xml:space="preserve">
<g>
	<path d="M263.342,47.706h-49.477v-0.792c0-9.884-8.041-17.925-17.925-17.925h-71.365v-7.153C124.576,9.796,114.78,0,102.74,0
		S80.904,9.796,80.904,21.836v298.174H64.369c-4.971,0-9,4.029-9,9s4.029,9,9,9h77.969c4.971,0,9-4.029,9-9s-4.029-9-9-9h-17.762
		V142.859h51.428l-3.346,2.312c-3.241,2.238-4.649,6.324-3.477,10.084c1.172,3.76,4.653,6.321,8.592,6.321h85.569
		c10.642,0,19.3-8.658,19.3-19.3v-75.27C282.642,56.364,273.984,47.706,263.342,47.706z M98.904,21.836
		c0-2.115,1.721-3.836,3.836-3.836s3.836,1.721,3.836,3.836v294.276h-7.672V21.836z M124.576,46.99h71.29v77.869h-71.29V46.99z
		 M264.642,142.275c0,0.717-0.583,1.3-1.3,1.3h-56.707l3.346-2.312c2.433-1.68,3.885-4.448,3.885-7.405V65.706h49.477
		c0.717,0,1.3,0.583,1.3,1.3V142.275z"/>
</g>
<g>
</g>
<g>
</g>
<g>
</g>
<g>
</g>
<g>
</g>
<g>
</g>
<g>
</g>
<g>
</g>
<g>
</g>
<g>
</g>
<g>
</g>
<g>
</g>
<g>
</g>
<g>
</g>
<g>
</g>
</svg>
