<?xml version="1.0" encoding="iso-8859-1"?>
<!-- Generator: Adobe Illustrator 18.0.0, SVG Export Plug-In . SVG Version: 6.00 Build 0)  -->
<!DOCTYPE svg PUBLIC "-//W3C//DTD SVG 1.1//EN" "http://www.w3.org/Graphics/SVG/1.1/DTD/svg11.dtd">
<svg version="1.1" id="Capa_1" xmlns="http://www.w3.org/2000/svg" xmlns:xlink="http://www.w3.org/1999/xlink" x="0px" y="0px"
	 viewBox="0 0 257.57 257.57" style="enable-background:new 0 0 257.57 257.57;" xml:space="preserve">
<g>
	<path d="M248.57,0H9C4.029,0,0,4.029,0,9v239.57c0,4.971,4.029,9,9,9h239.57c4.971,0,9-4.029,9-9V9
		C257.57,4.029,253.541,0,248.57,0z M18,98.179h101.785v61.212H18V98.179z M119.785,18v62.179H18V18H119.785z M18,177.391h101.785
		v62.179H18V177.391z M239.57,239.57H137.785V18H239.57V239.57z"/>
	<path d="M158.383,228.119h60.59c4.971,0,9-4.029,9-9V38.452c0-4.971-4.029-9-9-9h-60.59c-4.971,0-9,4.029-9,9v180.667
		C149.383,224.089,153.412,228.119,158.383,228.119z M167.383,47.452h42.59v162.667h-42.59V47.452z"/>
</g>
<g>
</g>
<g>
</g>
<g>
</g>
<g>
</g>
<g>
</g>
<g>
</g>
<g>
</g>
<g>
</g>
<g>
</g>
<g>
</g>
<g>
</g>
<g>
</g>
<g>
</g>
<g>
</g>
<g>
</g>
</svg>
