<?xml version="1.0" encoding="iso-8859-1"?>
<!-- Generator: Adobe Illustrator 18.0.0, SVG Export Plug-In . SVG Version: 6.00 Build 0)  -->
<!DOCTYPE svg PUBLIC "-//W3C//DTD SVG 1.1//EN" "http://www.w3.org/Graphics/SVG/1.1/DTD/svg11.dtd">
<svg version="1.1" id="Capa_1" xmlns="http://www.w3.org/2000/svg" xmlns:xlink="http://www.w3.org/1999/xlink" x="0px" y="0px"
	 viewBox="0 0 205.198 205.198" style="enable-background:new 0 0 205.198 205.198;" xml:space="preserve">
<path d="M196.198,0h-44.916c-4.971,0-9,4.029-9,9s4.029,9,9,9h23.188l-71.872,71.872L30.728,18h23.188c4.971,0,9-4.029,9-9
	s-4.029-9-9-9H9C4.029,0,0,4.029,0,9v44.916c0,4.971,4.029,9,9,9s9-4.029,9-9V30.728l71.872,71.872L18,174.471v-23.188
	c0-4.971-4.029-9-9-9s-9,4.029-9,9v44.916c0,4.971,4.029,9,9,9h44.916c4.971,0,9-4.029,9-9s-4.029-9-9-9H30.728l71.872-71.872
	l82.636,82.636c1.757,1.757,4.061,2.636,6.364,2.636s4.606-0.879,6.364-2.636c3.515-3.515,3.515-9.213,0-12.728l-82.636-82.636
	l71.872-71.872v23.188c0,4.971,4.029,9,9,9s9-4.029,9-9V9C205.198,4.029,201.169,0,196.198,0z"/>
<g>
</g>
<g>
</g>
<g>
</g>
<g>
</g>
<g>
</g>
<g>
</g>
<g>
</g>
<g>
</g>
<g>
</g>
<g>
</g>
<g>
</g>
<g>
</g>
<g>
</g>
<g>
</g>
<g>
</g>
</svg>
