<?xml version="1.0" encoding="iso-8859-1"?>
<!-- Generator: Adobe Illustrator 18.0.0, SVG Export Plug-In . SVG Version: 6.00 Build 0)  -->
<!DOCTYPE svg PUBLIC "-//W3C//DTD SVG 1.1//EN" "http://www.w3.org/Graphics/SVG/1.1/DTD/svg11.dtd">
<svg version="1.1" id="Capa_1" xmlns="http://www.w3.org/2000/svg" xmlns:xlink="http://www.w3.org/1999/xlink" x="0px" y="0px"
	 viewBox="0 0 280 280" style="enable-background:new 0 0 280 280;" xml:space="preserve">
<g>
	<path d="M183.028,43.028H96.972C43.501,43.028,0,86.529,0,140s43.501,96.972,96.972,96.972h86.057
		c53.47,0,96.972-43.501,96.972-96.972S236.499,43.028,183.028,43.028z M183.028,218.972H96.972C53.427,218.972,18,183.545,18,140
		s35.427-78.972,78.972-78.972h86.057C226.573,61.028,262,96.455,262,140S226.573,218.972,183.028,218.972z"/>
	<path d="M192.298,93.982c-4.971,0-9,4.029-9,9V131.9l-40.496-33.858c-5.321-4.449-13.416-0.666-13.416,6.271v17.365l-28.268-23.635
		c-5.321-4.449-13.416-0.666-13.416,6.271v71.376c0,6.936,8.095,10.719,13.416,6.271l28.268-23.635v17.365
		c0,6.936,8.095,10.719,13.416,6.271l40.496-33.858v30.733c0,4.971,4.029,9,9,9s9-4.029,9-9v-75.851
		C201.298,98.012,197.269,93.982,192.298,93.982z"/>
</g>
<g>
</g>
<g>
</g>
<g>
</g>
<g>
</g>
<g>
</g>
<g>
</g>
<g>
</g>
<g>
</g>
<g>
</g>
<g>
</g>
<g>
</g>
<g>
</g>
<g>
</g>
<g>
</g>
<g>
</g>
</svg>
