<?xml version="1.0" encoding="iso-8859-1"?>
<!-- Generator: Adobe Illustrator 18.0.0, SVG Export Plug-In . SVG Version: 6.00 Build 0)  -->
<!DOCTYPE svg PUBLIC "-//W3C//DTD SVG 1.1//EN" "http://www.w3.org/Graphics/SVG/1.1/DTD/svg11.dtd">
<svg version="1.1" id="Capa_1" xmlns="http://www.w3.org/2000/svg" xmlns:xlink="http://www.w3.org/1999/xlink" x="0px" y="0px"
	 viewBox="0 0 280 280" style="enable-background:new 0 0 280 280;" xml:space="preserve">
<g>
	<path d="M150.674,95.648c-5.562-6.652-15.787-6.652-21.349,0l-35.29,42.208c-7.573,9.058-1.133,22.838,10.674,22.838h70.58
		c11.807,0,18.248-13.78,10.674-22.838L150.674,95.648z"/>
	<path d="M177.018,174.341h-75.851c-4.971,0-9,4.029-9,9s4.029,9,9,9h75.851c4.971,0,9-4.029,9-9S181.988,174.341,177.018,174.341z"
		/>
	<path d="M183.028,43.028H96.972C43.501,43.028,0,86.529,0,140s43.501,96.972,96.972,96.972h86.057
		C236.499,236.972,280,193.471,280,140S236.499,43.028,183.028,43.028z M183.028,218.972H96.972C53.427,218.972,18,183.545,18,140
		s35.427-78.972,78.972-78.972h86.057C226.573,61.028,262,96.455,262,140S226.573,218.972,183.028,218.972z"/>
</g>
<g>
</g>
<g>
</g>
<g>
</g>
<g>
</g>
<g>
</g>
<g>
</g>
<g>
</g>
<g>
</g>
<g>
</g>
<g>
</g>
<g>
</g>
<g>
</g>
<g>
</g>
<g>
</g>
<g>
</g>
</svg>
