<?xml version="1.0" encoding="iso-8859-1"?>
<!-- Generator: Adobe Illustrator 18.0.0, SVG Export Plug-In . SVG Version: 6.00 Build 0)  -->
<!DOCTYPE svg PUBLIC "-//W3C//DTD SVG 1.1//EN" "http://www.w3.org/Graphics/SVG/1.1/DTD/svg11.dtd">
<svg version="1.1" id="Capa_1" xmlns="http://www.w3.org/2000/svg" xmlns:xlink="http://www.w3.org/1999/xlink" x="0px" y="0px"
	 viewBox="0 0 262.922 262.922" style="enable-background:new 0 0 262.922 262.922;" xml:space="preserve">
<g>
	<path d="M189.386,58.629c11.313-14.384,13.878-31.907,5.113-44.791c-5.804-8.533-15.978-13.572-27.912-13.827
		c-10.972-0.243-22.643,3.466-32.864,10.42c-0.767,0.522-1.521,1.06-2.263,1.612c-0.742-0.553-1.497-1.09-2.264-1.612
		C118.976,3.478,107.29-0.222,96.334,0.011C84.4,0.266,74.227,5.305,68.422,13.838c-8.765,12.884-6.2,30.407,5.113,44.791
		C38.226,66.728,11.8,98.382,11.8,136.112v117.81c0,4.971,4.029,9,9,9h221.321c4.971,0,9-4.029,9-9v-117.81
		C251.122,98.382,224.696,66.728,189.386,58.629z M233.122,136.112v4.004h-71.058V74.601h9.546
		C205.527,74.601,233.122,102.195,233.122,136.112z M144.063,74.601v65.516h-28.498V74.601H144.063z M144.063,158.116v28.498
		h-28.498v-28.498H144.063z M97.566,186.614H32.05v-28.498h65.516V186.614z M115.566,204.614h28.498v40.308h-28.498V204.614z
		 M162.063,158.116h65.516v28.498h-65.516V158.116z M166.205,18.007c3.547,0.076,10.007,0.95,13.412,5.955
		c5.766,8.476-0.74,23.38-14.206,32.639h-24.951V27.857c1.084-0.892,2.215-1.744,3.39-2.544
		C150.899,20.518,159.032,17.846,166.205,18.007z M83.305,23.962c3.405-5.005,9.864-5.879,13.412-5.955
		c7.159-0.171,15.306,2.51,22.355,7.306c1.175,0.799,2.304,1.652,3.388,2.544v28.744H97.511
		C84.045,47.342,77.539,32.438,83.305,23.962z M91.312,74.601h6.254v65.516H29.8v-4.004C29.8,102.195,57.395,74.601,91.312,74.601z
		 M29.8,204.614h67.766v40.308H29.8V204.614z M162.063,244.922v-40.308h71.058v40.308H162.063z"/>
</g>
<g>
</g>
<g>
</g>
<g>
</g>
<g>
</g>
<g>
</g>
<g>
</g>
<g>
</g>
<g>
</g>
<g>
</g>
<g>
</g>
<g>
</g>
<g>
</g>
<g>
</g>
<g>
</g>
<g>
</g>
</svg>
