<?xml version="1.0" encoding="iso-8859-1"?>
<!-- Generator: Adobe Illustrator 18.0.0, SVG Export Plug-In . SVG Version: 6.00 Build 0)  -->
<!DOCTYPE svg PUBLIC "-//W3C//DTD SVG 1.1//EN" "http://www.w3.org/Graphics/SVG/1.1/DTD/svg11.dtd">
<svg version="1.1" id="Capa_1" xmlns="http://www.w3.org/2000/svg" xmlns:xlink="http://www.w3.org/1999/xlink" x="0px" y="0px"
	 viewBox="0 0 281.488 281.488" style="enable-background:new 0 0 281.488 281.488;" xml:space="preserve">
<g>
	<path d="M140.744,0C63.138,0,0,63.138,0,140.744s63.138,140.744,140.744,140.744s140.744-63.138,140.744-140.744
		S218.351,0,140.744,0z M140.744,263.488C73.063,263.488,18,208.426,18,140.744S73.063,18,140.744,18
		s122.744,55.063,122.744,122.744S208.425,263.488,140.744,263.488z"/>
	<path d="M140.744,65.326c-26.002,0-47.157,21.154-47.157,47.157c0,4.971,4.029,9,9,9s9-4.029,9-9
		c0-16.077,13.08-29.157,29.157-29.157s29.157,13.08,29.157,29.157s-13.08,29.157-29.157,29.157c-4.971,0-9,4.029-9,9v34.601
		c0,4.971,4.029,9,9,9s9-4.029,9-9v-26.462c21.712-4.214,38.157-23.371,38.157-46.296C187.901,86.48,166.747,65.326,140.744,65.326z
		"/>
	<path d="M140.744,208.164c-2.37,0-4.69,0.96-6.36,2.63c-1.68,1.68-2.64,4-2.64,6.37s0.96,4.689,2.64,6.359
		c1.67,1.681,3.99,2.641,6.36,2.641c2.37,0,4.69-0.96,6.36-2.641c1.68-1.67,2.64-3.989,2.64-6.359s-0.96-4.69-2.64-6.37
		C145.434,209.124,143.114,208.164,140.744,208.164z"/>
</g>
<g>
</g>
<g>
</g>
<g>
</g>
<g>
</g>
<g>
</g>
<g>
</g>
<g>
</g>
<g>
</g>
<g>
</g>
<g>
</g>
<g>
</g>
<g>
</g>
<g>
</g>
<g>
</g>
<g>
</g>
</svg>
