<?xml version="1.0" encoding="iso-8859-1"?>
<!-- Generator: Adobe Illustrator 18.0.0, SVG Export Plug-In . SVG Version: 6.00 Build 0)  -->
<!DOCTYPE svg PUBLIC "-//W3C//DTD SVG 1.1//EN" "http://www.w3.org/Graphics/SVG/1.1/DTD/svg11.dtd">
<svg version="1.1" id="Capa_1" xmlns="http://www.w3.org/2000/svg" xmlns:xlink="http://www.w3.org/1999/xlink" x="0px" y="0px"
	 viewBox="0 0 276.715 276.715" style="enable-background:new 0 0 276.715 276.715;" xml:space="preserve">
<g>
	<path d="M138.357,0C62.067,0,0,62.066,0,138.357s62.067,138.357,138.357,138.357s138.357-62.066,138.357-138.357
		S214.648,0,138.357,0z M138.357,258.715C71.992,258.715,18,204.723,18,138.357S71.992,18,138.357,18
		s120.357,53.992,120.357,120.357S204.723,258.715,138.357,258.715z"/>
	<path d="M140.812,66.02c-22.483,0-43.056,12.645-55.031,33.823c-0.145,0.256-0.274,0.518-0.391,0.781h-8.857
		c-6.121,0-9.583,7.021-5.857,11.877l17.083,22.265c2.955,3.852,8.76,3.852,11.715,0l17.082-22.265
		c3.726-4.856,0.264-11.877-5.857-11.877h-3.679c8.78-10.535,20.894-16.604,33.793-16.604c25.908,0,46.986,24.376,46.986,54.338
		c0,29.963-21.078,54.339-46.986,54.339c-15.429,0-29.896-8.8-38.697-23.54c-2.548-4.269-8.074-5.662-12.341-3.113
		s-5.661,8.074-3.113,12.342c12.082,20.232,32.325,32.312,54.151,32.312c35.833,0,64.986-32.451,64.986-72.339
		S176.645,66.02,140.812,66.02z"/>
</g>
<g>
</g>
<g>
</g>
<g>
</g>
<g>
</g>
<g>
</g>
<g>
</g>
<g>
</g>
<g>
</g>
<g>
</g>
<g>
</g>
<g>
</g>
<g>
</g>
<g>
</g>
<g>
</g>
<g>
</g>
</svg>
