<?xml version="1.0" encoding="iso-8859-1"?>
<!-- Generator: Adobe Illustrator 18.0.0, SVG Export Plug-In . SVG Version: 6.00 Build 0)  -->
<!DOCTYPE svg PUBLIC "-//W3C//DTD SVG 1.1//EN" "http://www.w3.org/Graphics/SVG/1.1/DTD/svg11.dtd">
<svg version="1.1" id="Capa_1" xmlns="http://www.w3.org/2000/svg" xmlns:xlink="http://www.w3.org/1999/xlink" x="0px" y="0px"
	 viewBox="0 0 281.488 281.488" style="enable-background:new 0 0 281.488 281.488;" xml:space="preserve">
<g>
	<path d="M140.744,0C63.138,0,0,63.138,0,140.744s63.138,140.744,140.744,140.744s140.744-63.138,140.744-140.744
		S218.351,0,140.744,0z M140.744,263.488C73.063,263.488,18,208.426,18,140.744S73.063,18,140.744,18
		s122.744,55.063,122.744,122.744S208.426,263.488,140.744,263.488z"/>
	<path d="M216.696,109.448l-31.487-16.157c-2.216-1.138-4.807-1.305-7.152-0.462c-2.345,0.843-4.236,2.62-5.222,4.909l-14,32.504
		c-1.967,4.565,0.141,9.86,4.705,11.826c1.161,0.5,2.368,0.736,3.557,0.736c3.485,0,6.804-2.037,8.27-5.441l4.949-11.49
		c1.422,4.794,2.158,9.77,2.158,14.871c0,28.831-23.455,52.286-52.286,52.286S77.9,169.575,77.9,140.744
		s23.455-52.286,52.286-52.286c5.389,0,10.696,0.814,15.774,2.419c4.744,1.504,9.797-1.129,11.294-5.868
		c1.498-4.74-1.129-9.796-5.868-11.294c-6.836-2.161-13.969-3.257-21.2-3.257c-38.756,0-70.286,31.53-70.286,70.286
		s31.53,70.286,70.286,70.286s70.286-31.53,70.286-70.286c0-7.224-1.09-14.268-3.218-21.04l11.225,5.76
		c4.42,2.269,9.847,0.521,12.116-3.899C222.864,117.143,221.119,111.718,216.696,109.448z"/>
</g>
<g>
</g>
<g>
</g>
<g>
</g>
<g>
</g>
<g>
</g>
<g>
</g>
<g>
</g>
<g>
</g>
<g>
</g>
<g>
</g>
<g>
</g>
<g>
</g>
<g>
</g>
<g>
</g>
<g>
</g>
</svg>
