<?xml version="1.0" encoding="iso-8859-1"?>
<!-- Generator: Adobe Illustrator 18.0.0, SVG Export Plug-In . SVG Version: 6.00 Build 0)  -->
<!DOCTYPE svg PUBLIC "-//W3C//DTD SVG 1.1//EN" "http://www.w3.org/Graphics/SVG/1.1/DTD/svg11.dtd">
<svg version="1.1" id="Capa_1" xmlns="http://www.w3.org/2000/svg" xmlns:xlink="http://www.w3.org/1999/xlink" x="0px" y="0px"
	 viewBox="0 0 280 280" style="enable-background:new 0 0 280 280;" xml:space="preserve">
<g>
	<path d="M148.688,146H98.623l6.338-5.925c3.632-3.395,3.823-9.09,0.43-12.721c-3.395-3.633-9.09-3.823-12.721-0.43l-23,21.5
		c-1.821,1.702-2.854,4.083-2.854,6.575s1.033,4.873,2.854,6.575l23,21.5c1.735,1.622,3.941,2.425,6.144,2.425
		c2.405,0,4.805-0.958,6.577-2.854c3.394-3.631,3.202-9.326-0.43-12.721L98.623,164h50.065c4.971,0,9-4.029,9-9
		S153.658,146,148.688,146z"/>
	<path d="M187.33,96.925c-3.631-3.393-9.325-3.203-12.721,0.43c-3.394,3.631-3.202,9.326,0.43,12.721l6.338,5.925h-50.065
		c-4.971,0-9,4.029-9,9s4.029,9,9,9h50.065l-6.338,5.925c-3.632,3.395-3.823,9.09-0.43,12.721c1.772,1.896,4.172,2.854,6.577,2.854
		c2.202,0,4.408-0.803,6.144-2.425l23-21.5c1.821-1.702,2.854-4.083,2.854-6.575s-1.033-4.873-2.854-6.575L187.33,96.925z"/>
	<path d="M183.028,43.028H96.972C43.501,43.028,0,86.529,0,140s43.501,96.972,96.972,96.972h86.057
		C236.499,236.972,280,193.471,280,140S236.499,43.028,183.028,43.028z M183.028,218.972H96.972C53.427,218.972,18,183.545,18,140
		s35.427-78.972,78.972-78.972h86.057C226.573,61.028,262,96.455,262,140S226.573,218.972,183.028,218.972z"/>
</g>
<g>
</g>
<g>
</g>
<g>
</g>
<g>
</g>
<g>
</g>
<g>
</g>
<g>
</g>
<g>
</g>
<g>
</g>
<g>
</g>
<g>
</g>
<g>
</g>
<g>
</g>
<g>
</g>
<g>
</g>
</svg>
