<?xml version="1.0" encoding="iso-8859-1"?>
<!-- Generator: Adobe Illustrator 18.0.0, SVG Export Plug-In . SVG Version: 6.00 Build 0)  -->
<!DOCTYPE svg PUBLIC "-//W3C//DTD SVG 1.1//EN" "http://www.w3.org/Graphics/SVG/1.1/DTD/svg11.dtd">
<svg version="1.1" id="Capa_1" xmlns="http://www.w3.org/2000/svg" xmlns:xlink="http://www.w3.org/1999/xlink" x="0px" y="0px"
	 viewBox="0 0 297.033 297.033" style="enable-background:new 0 0 297.033 297.033;" xml:space="preserve">
<g>
	<path d="M77.874,85.474c-18.455,0-33.469,15.014-33.469,33.469s15.014,33.468,33.469,33.468s33.469-15.014,33.469-33.468
		S96.329,85.474,77.874,85.474z M77.874,134.411c-8.529,0-15.469-6.939-15.469-15.468s6.939-15.469,15.469-15.469
		s15.469,6.939,15.469,15.469S86.403,134.411,77.874,134.411z"/>
	<path d="M148.517,85.474c-18.455,0-33.469,15.014-33.469,33.469s15.014,33.468,33.469,33.468s33.469-15.014,33.469-33.468
		S166.972,85.474,148.517,85.474z M148.517,134.411c-8.529,0-15.469-6.939-15.469-15.468s6.939-15.469,15.469-15.469
		s15.469,6.939,15.469,15.469S157.046,134.411,148.517,134.411z"/>
	<path d="M219.159,85.474c-18.455,0-33.469,15.014-33.469,33.469s15.014,33.468,33.469,33.468s33.469-15.014,33.469-33.468
		S237.614,85.474,219.159,85.474z M219.159,134.411c-8.529,0-15.469-6.939-15.469-15.468s6.939-15.469,15.469-15.469
		s15.469,6.939,15.469,15.469S227.688,134.411,219.159,134.411z"/>
	<path d="M264.56,22.833H32.474C14.567,22.833,0,37.401,0,55.307v127.271c0,17.906,14.567,32.474,32.474,32.474h149.284
		l56.511,56.511c1.722,1.722,4.023,2.637,6.366,2.637c1.159,0,2.329-0.225,3.442-0.686c3.363-1.393,5.556-4.675,5.556-8.315v-50.147
		h10.927c17.906,0,32.474-14.568,32.474-32.474V55.307C297.033,37.401,282.466,22.833,264.56,22.833z M279.033,182.578
		c0,7.981-6.493,14.474-14.474,14.474h-19.927c-4.971,0-9,4.029-9,9v37.419l-43.783-43.783c-1.688-1.688-3.978-2.636-6.364-2.636
		H32.474c-7.98,0-14.474-6.493-14.474-14.474V55.307c0-7.981,6.493-14.474,14.474-14.474H264.56c7.98,0,14.474,6.493,14.474,14.474
		V182.578z"/>
</g>
<g>
</g>
<g>
</g>
<g>
</g>
<g>
</g>
<g>
</g>
<g>
</g>
<g>
</g>
<g>
</g>
<g>
</g>
<g>
</g>
<g>
</g>
<g>
</g>
<g>
</g>
<g>
</g>
<g>
</g>
</svg>
