<?xml version="1.0" encoding="iso-8859-1"?>
<!-- Generator: Adobe Illustrator 18.0.0, SVG Export Plug-In . SVG Version: 6.00 Build 0)  -->
<!DOCTYPE svg PUBLIC "-//W3C//DTD SVG 1.1//EN" "http://www.w3.org/Graphics/SVG/1.1/DTD/svg11.dtd">
<svg version="1.1" id="Capa_1" xmlns="http://www.w3.org/2000/svg" xmlns:xlink="http://www.w3.org/1999/xlink" x="0px" y="0px"
	 viewBox="0 0 301.438 301.438" style="enable-background:new 0 0 301.438 301.438;" xml:space="preserve">
<g>
	<path d="M292.438,142.205c4.971,0,9-4.029,9-9V99.77c0-4.971-4.029-9-9-9h-33.436c-4.971,0-9,4.029-9,9v7.256h-42.675V73.279h7.717
		c4.971,0,9-4.029,9-9V30.844c0-4.971-4.029-9-9-9H181.61c-4.971,0-9,4.029-9,9v7.718H51.436v-7.718c0-4.971-4.029-9-9-9H9
		c-4.971,0-9,4.029-9,9v33.435c0,4.971,4.029,9,9,9h7.718v83.555H9c-4.971,0-9,4.029-9,9v33.435c0,4.971,4.029,9,9,9h33.436
		c4.971,0,9-4.029,9-9v-4.856h42.675v33.747h-7.717c-4.971,0-9,4.029-9,9v33.435c0,4.971,4.029,9,9,9h33.435c4.971,0,9-4.029,9-9
		v-7.718h121.174v7.718c0,4.971,4.029,9,9,9h33.436c4.971,0,9-4.029,9-9V237.16c0-4.971-4.029-9-9-9h-7.718v-85.955H292.438z
		 M283.438,124.205h-15.436V108.77h15.436V124.205z M18,190.269v-15.435h15.436v15.435H18z M42.436,156.834h-7.718V73.279h7.718
		c4.971,0,9-4.029,9-9v-7.717H172.61v7.717c0,4.971,4.029,9,9,9h7.718v86.417h-7.718c-4.971,0-9,4.029-9,9v7.717H51.436v-10.579
		C51.436,160.863,47.406,156.834,42.436,156.834z M33.436,55.279H18V39.844h15.436V55.279z M206.045,39.844v15.435H190.61V39.844
		H206.045z M206.045,193.131H190.61v-15.435h15.435V193.131z M95.394,246.16h15.435v15.435H95.394V246.16z M283.438,261.595h-15.436
		V246.16h15.436V261.595z M266.721,228.16h-7.718c-4.971,0-9,4.029-9,9v7.717H128.829v-7.717c0-4.971-4.029-9-9-9h-7.718v-33.747
		h60.499v7.718c0,4.971,4.029,9,9,9h33.435c4.971,0,9-4.029,9-9v-33.435c0-4.971-4.029-9-9-9h-7.717v-34.67h42.675v8.18
		c0,4.971,4.029,9,9,9h7.718V228.16z"/>
</g>
<g>
</g>
<g>
</g>
<g>
</g>
<g>
</g>
<g>
</g>
<g>
</g>
<g>
</g>
<g>
</g>
<g>
</g>
<g>
</g>
<g>
</g>
<g>
</g>
<g>
</g>
<g>
</g>
<g>
</g>
</svg>
