<?xml version="1.0" encoding="iso-8859-1"?>
<!-- Generator: Adobe Illustrator 18.0.0, SVG Export Plug-In . SVG Version: 6.00 Build 0)  -->
<!DOCTYPE svg PUBLIC "-//W3C//DTD SVG 1.1//EN" "http://www.w3.org/Graphics/SVG/1.1/DTD/svg11.dtd">
<svg version="1.1" id="Capa_1" xmlns="http://www.w3.org/2000/svg" xmlns:xlink="http://www.w3.org/1999/xlink" x="0px" y="0px"
	 viewBox="0 0 303.76 303.76" style="enable-background:new 0 0 303.76 303.76;" xml:space="preserve">
<g>
	<path d="M294.76,58.921H112.824V42.812c0-4.971-4.029-9-9-9H38.96c-4.971,0-9,4.029-9,9v22.265H9c-2.636,0-5.139,1.155-6.849,3.162
		c-1.71,2.006-2.455,4.661-2.038,7.263l29.959,186.872c0.7,4.365,4.466,7.575,8.887,7.575h255.8c4.971,0,9-4.029,9-9V67.921
		C303.76,62.95,299.731,58.921,294.76,58.921z M46.631,251.948L19.558,83.076h45.849l1.481,14.041
		c0.492,4.663,4.497,8.154,9.13,8.052h181.657l26.327,146.779H46.631z M285.76,159.794L274.063,94.58
		c-0.769-4.289-4.501-7.411-8.858-7.411H83.939l-1.481-14.037c-0.483-4.58-4.345-8.056-8.95-8.056H47.96V51.812h46.865v16.109
		c0,4.971,4.029,9,9,9H285.76V159.794z"/>
</g>
<g>
</g>
<g>
</g>
<g>
</g>
<g>
</g>
<g>
</g>
<g>
</g>
<g>
</g>
<g>
</g>
<g>
</g>
<g>
</g>
<g>
</g>
<g>
</g>
<g>
</g>
<g>
</g>
<g>
</g>
</svg>
