<?xml version="1.0" encoding="iso-8859-1"?>
<!-- Generator: Adobe Illustrator 18.0.0, SVG Export Plug-In . SVG Version: 6.00 Build 0)  -->
<!DOCTYPE svg PUBLIC "-//W3C//DTD SVG 1.1//EN" "http://www.w3.org/Graphics/SVG/1.1/DTD/svg11.dtd">
<svg version="1.1" id="Capa_1" xmlns="http://www.w3.org/2000/svg" xmlns:xlink="http://www.w3.org/1999/xlink" x="0px" y="0px"
	 viewBox="0 0 244 244" style="enable-background:new 0 0 244 244;" xml:space="preserve">
<g>
	<path d="M223,0H21C9.421,0,0,9.421,0,21v202c0,11.579,9.421,21,21,21h202c11.579,0,21-9.421,21-21V21C244,9.421,234.579,0,223,0z
		 M21,18h202c1.654,0,3,1.346,3,3v135.667H18V21C18,19.346,19.346,18,21,18z M223,226H21c-1.654,0-3-1.346-3-3v-48.333h208V223
		C226,224.654,224.654,226,223,226z"/>
	<path d="M137.006,188.39L122,195.822l-15.006-7.433c-4.451-2.205-9.853-0.384-12.06,4.071c-2.206,4.454-0.383,9.854,4.071,12.06
		l19,9.41c1.258,0.623,2.626,0.935,3.994,0.935s2.736-0.312,3.994-0.935l19-9.41c4.454-2.206,6.277-7.605,4.071-12.06
		C146.859,188.006,141.459,186.185,137.006,188.39z"/>
</g>
<g>
</g>
<g>
</g>
<g>
</g>
<g>
</g>
<g>
</g>
<g>
</g>
<g>
</g>
<g>
</g>
<g>
</g>
<g>
</g>
<g>
</g>
<g>
</g>
<g>
</g>
<g>
</g>
<g>
</g>
</svg>
