<?xml version="1.0" encoding="iso-8859-1"?>
<!-- Generator: Adobe Illustrator 18.0.0, SVG Export Plug-In . SVG Version: 6.00 Build 0)  -->
<!DOCTYPE svg PUBLIC "-//W3C//DTD SVG 1.1//EN" "http://www.w3.org/Graphics/SVG/1.1/DTD/svg11.dtd">
<svg version="1.1" id="Capa_1" xmlns="http://www.w3.org/2000/svg" xmlns:xlink="http://www.w3.org/1999/xlink" x="0px" y="0px"
	 viewBox="0 0 293.584 293.584" style="enable-background:new 0 0 293.584 293.584;" xml:space="preserve">
<g>
	<path d="M146.792,0C65.851,0,0,65.851,0,146.792s65.851,146.792,146.792,146.792s146.792-65.851,146.792-146.792
		S227.733,0,146.792,0z M146.792,275.583C75.775,275.583,18,217.808,18,146.792S75.775,18,146.792,18
		s128.792,57.775,128.792,128.792S217.809,275.583,146.792,275.583z"/>
	<path d="M155.792,92.816V80.827c0-4.971-4.029-9-9-9s-9,4.029-9,9v11.989c-27.624,4.336-48.822,28.296-48.822,57.118
		c0,31.884,25.938,57.823,57.822,57.823s57.822-25.939,57.822-57.823C204.614,121.112,183.416,97.152,155.792,92.816z
		 M146.792,189.757c-21.958,0-39.822-17.864-39.822-39.823c0-18.862,13.187-34.692,30.822-38.784v24.078c0,4.971,4.029,9,9,9
		s9-4.029,9-9V111.15c17.636,4.092,30.822,19.922,30.822,38.784C186.614,171.893,168.75,189.757,146.792,189.757z"/>
</g>
<g>
</g>
<g>
</g>
<g>
</g>
<g>
</g>
<g>
</g>
<g>
</g>
<g>
</g>
<g>
</g>
<g>
</g>
<g>
</g>
<g>
</g>
<g>
</g>
<g>
</g>
<g>
</g>
<g>
</g>
</svg>
