<?xml version="1.0" encoding="iso-8859-1"?>
<!-- Generator: Adobe Illustrator 18.0.0, SVG Export Plug-In . SVG Version: 6.00 Build 0)  -->
<!DOCTYPE svg PUBLIC "-//W3C//DTD SVG 1.1//EN" "http://www.w3.org/Graphics/SVG/1.1/DTD/svg11.dtd">
<svg version="1.1" id="Capa_1" xmlns="http://www.w3.org/2000/svg" xmlns:xlink="http://www.w3.org/1999/xlink" x="0px" y="0px"
	 viewBox="0 0 303.374 303.374" style="enable-background:new 0 0 303.374 303.374;" xml:space="preserve">
<g>
	<path d="M50.655,125.557c4.971,0,9-4.029,9-9v-13.813h15.359c4.971,0,9-4.029,9-9s-4.029-9-9-9H50.655c-4.971,0-9,4.029-9,9v22.813
		C41.655,121.528,45.685,125.557,50.655,125.557z"/>
	<path d="M50.655,218.629h24.36c4.971,0,9-4.029,9-9s-4.029-9-9-9h-15.36v-13.813c0-4.971-4.029-9-9-9s-9,4.029-9,9v22.813
		C41.655,214.6,45.685,218.629,50.655,218.629z"/>
	<path d="M252.719,177.817c-4.971,0-9,4.029-9,9v13.812h-15.359c-4.971,0-9,4.029-9,9s4.029,9,9,9h24.359c4.971,0,9-4.029,9-9
		v-22.812C261.719,181.846,257.689,177.817,252.719,177.817z"/>
	<path d="M228.359,102.745h15.36v13.813c0,4.971,4.029,9,9,9s9-4.029,9-9V93.745c0-4.971-4.029-9-9-9h-24.36c-4.971,0-9,4.029-9,9
		S223.388,102.745,228.359,102.745z"/>
	<path d="M294.374,50.065H9c-4.971,0-9,4.029-9,9v185.244c0,4.971,4.029,9,9,9h285.374c4.971,0,9-4.029,9-9V59.065
		C303.374,54.094,299.345,50.065,294.374,50.065z M285.374,235.309H18V68.065h267.374V235.309z"/>
</g>
<g>
</g>
<g>
</g>
<g>
</g>
<g>
</g>
<g>
</g>
<g>
</g>
<g>
</g>
<g>
</g>
<g>
</g>
<g>
</g>
<g>
</g>
<g>
</g>
<g>
</g>
<g>
</g>
<g>
</g>
</svg>
