<?xml version="1.0" encoding="iso-8859-1"?>
<!-- Generator: Adobe Illustrator 18.0.0, SVG Export Plug-In . SVG Version: 6.00 Build 0)  -->
<!DOCTYPE svg PUBLIC "-//W3C//DTD SVG 1.1//EN" "http://www.w3.org/Graphics/SVG/1.1/DTD/svg11.dtd">
<svg version="1.1" id="Capa_1" xmlns="http://www.w3.org/2000/svg" xmlns:xlink="http://www.w3.org/1999/xlink" x="0px" y="0px"
	 viewBox="0 0 280 280" style="enable-background:new 0 0 280 280;" xml:space="preserve">
<g>
	<path d="M271,24.229H9c-4.971,0-9,4.029-9,9v175.943c0,4.971,4.029,9,9,9h121.932v19.6h-29.272c-4.971,0-9,4.029-9,9s4.029,9,9,9
		h76.682c4.971,0,9-4.029,9-9s-4.029-9-9-9h-29.409v-19.6H271c4.971,0,9-4.029,9-9V33.229C280,28.258,275.971,24.229,271,24.229z
		 M262,200.172H18V42.229h244V200.172z"/>
	<polygon points="86.819,129.294 109.511,129.294 99.966,164.915 124.842,164.915 148.269,77.485 123.394,77.485 115.331,107.576 
		92.638,107.576 100.701,77.485 75.824,77.485 52.397,164.915 77.274,164.915 	"/>
	<path d="M177.445,164.915c26.57,0,42.204-23.018,47.976-44.56c2.179-8.131,4.671-23.288-3.12-33.441
		c-4.801-6.257-12.508-9.429-22.908-9.429h-38.137l-23.427,87.43H177.445z M179.98,99.204h12.86c4.015,0,6.399,0.774,7.731,2.512
		c2.216,2.887,2.169,9.203-0.13,17.786c-1.49,5.559-7.43,23.696-21.313,23.696h-10.938L179.98,99.204z"/>
</g>
<g>
</g>
<g>
</g>
<g>
</g>
<g>
</g>
<g>
</g>
<g>
</g>
<g>
</g>
<g>
</g>
<g>
</g>
<g>
</g>
<g>
</g>
<g>
</g>
<g>
</g>
<g>
</g>
<g>
</g>
</svg>
