<?xml version="1.0" encoding="iso-8859-1"?>
<!-- Generator: Adobe Illustrator 18.0.0, SVG Export Plug-In . SVG Version: 6.00 Build 0)  -->
<!DOCTYPE svg PUBLIC "-//W3C//DTD SVG 1.1//EN" "http://www.w3.org/Graphics/SVG/1.1/DTD/svg11.dtd">
<svg version="1.1" id="Capa_1" xmlns="http://www.w3.org/2000/svg" xmlns:xlink="http://www.w3.org/1999/xlink" x="0px" y="0px"
	 viewBox="0 0 253.083 253.083" style="enable-background:new 0 0 253.083 253.083;" xml:space="preserve">
<g>
	<path d="M253.083,45.526c0-5.61-2.185-10.883-6.151-14.849L224.305,8.05c-3.966-3.966-9.24-6.151-14.85-6.151
		c-5.609,0-10.883,2.185-14.849,6.151l-18.346,18.346H9c-4.971,0-9,4.029-9,9v206.789c0,4.971,4.029,9,9,9h203.358
		c4.971,0,9-4.029,9-9V85.949l25.574-25.574C250.899,56.409,253.083,51.136,253.083,45.526z M85.542,152.128l17.312,17.312
		l-22.258,4.946L85.542,152.128z M120.36,161.492l-6.929-6.929l93.475-92.759l6.571,6.571L120.36,161.492z M194.179,49.077
		l-93.475,92.759l-7.214-7.214l93.117-93.116L194.179,49.077z M234.205,47.648l-8,8l-26.87-26.87l8-8
		c0.764-0.765,1.657-0.879,2.121-0.879c0.464,0,1.357,0.114,2.122,0.879l22.627,22.628c0.765,0.764,0.879,1.657,0.879,2.121
		C235.083,45.99,234.969,46.883,234.205,47.648z M203.358,233.185H18V44.396h140.261l-84.569,84.569
		c-1.21,1.21-2.051,2.741-2.422,4.412l-11.313,50.912c-0.667,3.003,0.246,6.14,2.422,8.316c1.706,1.707,4.003,2.636,6.364,2.636
		c0.649,0,1.304-0.07,1.952-0.214l50.912-11.313c1.671-0.371,3.202-1.211,4.412-2.422l77.341-77.341V233.185z"/>
</g>
<g>
</g>
<g>
</g>
<g>
</g>
<g>
</g>
<g>
</g>
<g>
</g>
<g>
</g>
<g>
</g>
<g>
</g>
<g>
</g>
<g>
</g>
<g>
</g>
<g>
</g>
<g>
</g>
<g>
</g>
</svg>
