<?xml version="1.0" encoding="iso-8859-1"?>
<!-- Generator: Adobe Illustrator 18.0.0, SVG Export Plug-In . SVG Version: 6.00 Build 0)  -->
<!DOCTYPE svg PUBLIC "-//W3C//DTD SVG 1.1//EN" "http://www.w3.org/Graphics/SVG/1.1/DTD/svg11.dtd">
<svg version="1.1" id="Capa_1" xmlns="http://www.w3.org/2000/svg" xmlns:xlink="http://www.w3.org/1999/xlink" x="0px" y="0px"
	 viewBox="0 0 261.666 261.666" style="enable-background:new 0 0 261.666 261.666;" xml:space="preserve">
<g>
	<path d="M252.666,5.94H9c-4.971,0-9,4.029-9,9v55.71c0,4.971,4.029,9,9,9h2.791v155.076c0,11.58,9.421,21,21,21h196.084
		c11.579,0,21-9.42,21-21V79.65h2.791c4.971,0,9-4.029,9-9V14.94C261.666,9.969,257.637,5.94,252.666,5.94z M243.666,23.94v37.71H18
		V23.94H243.666z M231.875,234.726c0,1.654-1.346,3-3,3H32.791c-1.654,0-3-1.346-3-3V79.65h202.084V234.726z"/>
	<path d="M98.713,123.343h64.24c4.971,0,9-4.029,9-9s-4.029-9-9-9h-64.24c-4.971,0-9,4.029-9,9S93.742,123.343,98.713,123.343z"/>
</g>
<g>
</g>
<g>
</g>
<g>
</g>
<g>
</g>
<g>
</g>
<g>
</g>
<g>
</g>
<g>
</g>
<g>
</g>
<g>
</g>
<g>
</g>
<g>
</g>
<g>
</g>
<g>
</g>
<g>
</g>
</svg>
