<?xml version="1.0" encoding="iso-8859-1"?>
<!-- Generator: Adobe Illustrator 18.0.0, SVG Export Plug-In . SVG Version: 6.00 Build 0)  -->
<!DOCTYPE svg PUBLIC "-//W3C//DTD SVG 1.1//EN" "http://www.w3.org/Graphics/SVG/1.1/DTD/svg11.dtd">
<svg version="1.1" id="Capa_1" xmlns="http://www.w3.org/2000/svg" xmlns:xlink="http://www.w3.org/1999/xlink" x="0px" y="0px"
	 viewBox="0 0 299.32 299.32" style="enable-background:new 0 0 299.32 299.32;" xml:space="preserve">
<g>
	<path d="M290.32,72.741h-60.333c-2.995-27.093-26.02-48.239-53.898-48.239H123.23c-27.878,0-50.903,21.146-53.898,48.239H9
		c-4.971,0-9,4.029-9,9v172.077c0,11.58,9.421,21,21,21h257.32c11.579,0,21-9.42,21-21V81.741
		C299.32,76.771,295.291,72.741,290.32,72.741z M169.853,147.228c-0.139,0.088-0.267,0.188-0.4,0.282h-39.585
		c-0.133-0.094-0.26-0.194-0.4-0.282L40.087,90.741h219.147L169.853,147.228z M149.66,176.318c4.971,0,9-4.029,9-9v-1.809h7v0.876
		c0,8.822-7.178,16-16,16s-16-7.178-16-16v-0.876h7v1.809C140.66,172.289,144.689,176.318,149.66,176.318z M123.23,42.502h52.859
		c17.938,0,32.865,13.104,35.732,30.239H87.499C90.366,55.606,105.293,42.502,123.23,42.502z M278.32,256.818H21
		c-1.654,0-3-1.346-3-3V98.076l97.66,61.719v6.591c0,18.748,15.252,34,34,34s34-15.252,34-34v-6.591l97.66-61.719v155.742
		C281.32,255.472,279.975,256.818,278.32,256.818z"/>
</g>
<g>
</g>
<g>
</g>
<g>
</g>
<g>
</g>
<g>
</g>
<g>
</g>
<g>
</g>
<g>
</g>
<g>
</g>
<g>
</g>
<g>
</g>
<g>
</g>
<g>
</g>
<g>
</g>
<g>
</g>
</svg>
