<?xml version="1.0" encoding="iso-8859-1"?>
<!-- Generator: Adobe Illustrator 18.0.0, SVG Export Plug-In . SVG Version: 6.00 Build 0)  -->
<!DOCTYPE svg PUBLIC "-//W3C//DTD SVG 1.1//EN" "http://www.w3.org/Graphics/SVG/1.1/DTD/svg11.dtd">
<svg version="1.1" id="Capa_1" xmlns="http://www.w3.org/2000/svg" xmlns:xlink="http://www.w3.org/1999/xlink" x="0px" y="0px"
	 viewBox="0 0 321.492 321.492" style="enable-background:new 0 0 321.492 321.492;" xml:space="preserve">
<g>
	<path d="M173.817,140.816l35.32-29.531c5.566-4.654,5.566-13.21,0-17.864l-35.32-29.531c-7.58-6.337-19.111-0.948-19.111,8.932
		v59.062C154.706,141.764,166.237,147.153,173.817,140.816z"/>
	<path d="M296.636,165.204h-26.861V9c0-4.971-4.029-9-9-9H84.409c-2.6,0-5.071,1.124-6.78,3.082L18.076,71.315
		c-1.432,1.64-2.22,3.742-2.22,5.918v235.259c0,4.971,4.029,9,9,9h235.918c4.971,0,9-4.029,9-9v-25.778h26.861c4.971,0,9-4.029,9-9
		v-103.51C305.636,169.233,301.606,165.204,296.636,165.204z M287.636,268.714H94.497v-85.51h193.139V268.714z M75.409,32.999
		v35.234H44.657L75.409,32.999z M251.774,303.492H33.856V86.233h50.553c4.971,0,9-4.029,9-9V18h158.365v147.204H85.497
		c-4.971,0-9,4.029-9,9v103.51c0,4.971,4.029,9,9,9h166.277V303.492z"/>
	<path d="M155.028,200.915l-18.618,52.218h11.491l3.636-10.764h19.272l3.345,10.764h11.854l-18.4-52.218H155.028z M154.446,233.351
		l6.692-20.654h0.145l6.473,20.654H154.446z"/>
	<polygon points="206.084,240.478 205.939,240.478 194.739,200.915 183.03,200.915 200.629,253.132 211.03,253.132 228.774,200.915 
		217.429,200.915 	"/>
	<rect x="234.813" y="200.915" width="10.91" height="52.218"/>
</g>
<g>
</g>
<g>
</g>
<g>
</g>
<g>
</g>
<g>
</g>
<g>
</g>
<g>
</g>
<g>
</g>
<g>
</g>
<g>
</g>
<g>
</g>
<g>
</g>
<g>
</g>
<g>
</g>
<g>
</g>
</svg>
