<?xml version="1.0" encoding="iso-8859-1"?>
<!-- Generator: Adobe Illustrator 18.0.0, SVG Export Plug-In . SVG Version: 6.00 Build 0)  -->
<!DOCTYPE svg PUBLIC "-//W3C//DTD SVG 1.1//EN" "http://www.w3.org/Graphics/SVG/1.1/DTD/svg11.dtd">
<svg version="1.1" id="Capa_1" xmlns="http://www.w3.org/2000/svg" xmlns:xlink="http://www.w3.org/1999/xlink" x="0px" y="0px"
	 viewBox="0 0 323.681 323.681" style="enable-background:new 0 0 323.681 323.681;" xml:space="preserve">
<g>
	<path d="M221.775,271.023c-0.004-0.013-0.008-0.027-0.012-0.041l-24.807-85.932c36.571-14.345,60.736-49.431,60.736-89.198
		C257.693,42.999,214.694,0,161.84,0S65.988,42.999,65.988,95.852c0,20.862,6.588,40.696,19.05,57.359
		c10.634,14.217,25.256,25.338,41.687,31.839l-11.677,40.448c-0.005,0.015-0.009,0.03-0.013,0.045l-13.117,45.44
		c-0.004,0.013-0.008,0.027-0.012,0.041l-11.882,41.159c-1.379,4.775,1.375,9.765,6.15,11.143c4.777,1.379,9.765-1.375,11.143-6.151
		l9.96-34.503h89.126l9.96,34.503c1.138,3.942,4.735,6.506,8.643,6.506c0.826,0,1.666-0.115,2.5-0.355
		c4.775-1.378,7.529-6.368,6.15-11.143L221.775,271.023z M170.487,93.356c-1.111-3.852-4.638-6.504-8.646-6.504
		s-7.535,2.652-8.646,6.504l-10.258,35.535c-11.677-6.693-19.156-19.244-19.156-33.039c0-20.987,17.074-38.061,38.061-38.061
		s38.061,17.074,38.061,38.061c0,13.911-7.45,26.387-19.152,33.053L170.487,93.356z M161.84,128.302l26.237,90.886h-52.474
		L161.84,128.302z M83.988,95.852C83.988,52.924,118.913,18,161.84,18s77.853,34.924,77.853,77.852
		c0,31.73-18.932,59.795-47.752,71.822l-6.104-21.143c19.438-9.164,32.063-28.706,32.063-50.679
		c0-30.912-25.148-56.061-56.061-56.061S105.78,64.94,105.78,95.852c0,21.793,12.676,41.481,32.067,50.669l-6.106,21.151
		C102.9,155.656,83.988,127.66,83.988,95.852z M122.474,264.671l7.934-27.483h62.866l7.934,27.483H122.474z"/>
</g>
<g>
</g>
<g>
</g>
<g>
</g>
<g>
</g>
<g>
</g>
<g>
</g>
<g>
</g>
<g>
</g>
<g>
</g>
<g>
</g>
<g>
</g>
<g>
</g>
<g>
</g>
<g>
</g>
<g>
</g>
</svg>
