<?xml version="1.0" encoding="iso-8859-1"?>
<!-- Generator: Adobe Illustrator 18.0.0, SVG Export Plug-In . SVG Version: 6.00 Build 0)  -->
<!DOCTYPE svg PUBLIC "-//W3C//DTD SVG 1.1//EN" "http://www.w3.org/Graphics/SVG/1.1/DTD/svg11.dtd">
<svg version="1.1" id="Capa_1" xmlns="http://www.w3.org/2000/svg" xmlns:xlink="http://www.w3.org/1999/xlink" x="0px" y="0px"
	 viewBox="0 0 292.463 292.463" style="enable-background:new 0 0 292.463 292.463;" xml:space="preserve">
<g>
	<path d="M283.463,41.689H9c-4.971,0-9,4.029-9,9v191.084c0,4.971,4.029,9,9,9h274.463c4.971,0,9-4.029,9-9V50.689
		C292.463,45.719,288.434,41.689,283.463,41.689z M274.463,99.015l-39.325-39.325h39.325V99.015z M27.326,59.689L200.41,232.773
		h-78.358L18,128.721V59.689H27.326z M18,193.448l39.325,39.325H18V193.448z M265.137,232.773L92.053,59.689h78.358l104.052,104.052
		v69.032H265.137z"/>
</g>
<g>
</g>
<g>
</g>
<g>
</g>
<g>
</g>
<g>
</g>
<g>
</g>
<g>
</g>
<g>
</g>
<g>
</g>
<g>
</g>
<g>
</g>
<g>
</g>
<g>
</g>
<g>
</g>
<g>
</g>
</svg>
